<?xml version="1.0" encoding="UTF-8" standalone="no"?>
<!DOCTYPE svg PUBLIC "-//W3C//DTD SVG 1.1//EN"
 "http://www.w3.org/Graphics/SVG/1.1/DTD/svg11.dtd">
<!-- Generated by graphviz version 2.43.0 (0)
 -->
<!-- Title: async_fifo Pages: 1 -->
<svg width="3894pt" height="762pt"
 viewBox="0.00 0.00 3894.28 761.75" xmlns="http://www.w3.org/2000/svg" xmlns:xlink="http://www.w3.org/1999/xlink">
<g id="graph0" class="graph" transform="scale(1 1) rotate(0) translate(4 757.75)">
<title>async_fifo</title>
<polygon fill="white" stroke="transparent" points="-4,4 -4,-757.75 3890.28,-757.75 3890.28,4 -4,4"/>
<text text-anchor="middle" x="1943.14" y="-7.8" font-family="Times,serif" font-size="14.00">async_fifo</text>
<!-- n1 -->
<g id="node1" class="node">
<title>n1</title>
<polygon fill="none" stroke="black" points="2862.71,-620.66 2862.71,-635.57 2843.84,-646.11 2817.14,-646.11 2798.27,-635.57 2798.27,-620.66 2817.14,-610.11 2843.84,-610.11 2862.71,-620.66"/>
<text text-anchor="middle" x="2830.49" y="-624.41" font-family="Times,serif" font-size="14.00">d_in</text>
</g>
<!-- c19 -->
<g id="node17" class="node">
<title>c19</title>
<polygon fill="none" stroke="black" points="2959.32,-448.61 2959.32,-655.61 3640.32,-655.61 3640.32,-448.61 2959.32,-448.61"/>
<text text-anchor="middle" x="3010.82" y="-640.41" font-family="Times,serif" font-size="14.00">cur_rd_bptr</text>
<polyline fill="none" stroke="black" points="2959.32,-632.61 3062.32,-632.61 "/>
<text text-anchor="middle" x="3010.82" y="-617.41" font-family="Times,serif" font-size="14.00">cur_wr_bptr</text>
<polyline fill="none" stroke="black" points="2959.32,-609.61 3062.32,-609.61 "/>
<text text-anchor="middle" x="3010.82" y="-594.41" font-family="Times,serif" font-size="14.00">d_in</text>
<polyline fill="none" stroke="black" points="2959.32,-586.61 3062.32,-586.61 "/>
<text text-anchor="middle" x="3010.82" y="-571.41" font-family="Times,serif" font-size="14.00">empty</text>
<polyline fill="none" stroke="black" points="2959.32,-563.61 3062.32,-563.61 "/>
<text text-anchor="middle" x="3010.82" y="-548.41" font-family="Times,serif" font-size="14.00">full</text>
<polyline fill="none" stroke="black" points="2959.32,-540.61 3062.32,-540.61 "/>
<text text-anchor="middle" x="3010.82" y="-525.41" font-family="Times,serif" font-size="14.00">rd_clk</text>
<polyline fill="none" stroke="black" points="2959.32,-517.61 3062.32,-517.61 "/>
<text text-anchor="middle" x="3010.82" y="-502.41" font-family="Times,serif" font-size="14.00">rd_en</text>
<polyline fill="none" stroke="black" points="2959.32,-494.61 3062.32,-494.61 "/>
<text text-anchor="middle" x="3010.82" y="-479.41" font-family="Times,serif" font-size="14.00">wr_clk</text>
<polyline fill="none" stroke="black" points="2959.32,-471.61 3062.32,-471.61 "/>
<text text-anchor="middle" x="3010.82" y="-456.41" font-family="Times,serif" font-size="14.00">wr_en</text>
<polyline fill="none" stroke="black" points="3062.32,-448.61 3062.32,-655.61 "/>
<text text-anchor="middle" x="3323.32" y="-555.91" font-family="Times,serif" font-size="14.00">dual_port_ram</text>
<text text-anchor="middle" x="3323.32" y="-540.91" font-family="Times,serif" font-size="14.00">$paramod\dual_port_ram\WIDTH=64\ADDR_WIDTH=3\PTR_WIDTH=4</text>
<polyline fill="none" stroke="black" points="3584.32,-448.61 3584.32,-655.61 "/>
<text text-anchor="middle" x="3612.32" y="-548.41" font-family="Times,serif" font-size="14.00">d_out</text>
</g>
<!-- n1&#45;&gt;c19 -->
<g id="edge1" class="edge">
<title>n1:e&#45;&gt;c19:w</title>
<path fill="none" stroke="black" stroke-width="3" d="M2863.49,-628.11C2904.46,-628.11 2913.36,-602.83 2949.07,-598.69"/>
<polygon fill="black" stroke="black" stroke-width="3" points="2949.53,-602.17 2959.32,-598.11 2949.14,-595.18 2949.53,-602.17"/>
</g>
<!-- n2 -->
<g id="node2" class="node">
<title>n2</title>
<polygon fill="none" stroke="black" points="3817.64,-544.66 3817.64,-559.57 3794.62,-570.11 3762.07,-570.11 3739.06,-559.57 3739.06,-544.66 3762.07,-534.11 3794.62,-534.11 3817.64,-544.66"/>
<text text-anchor="middle" x="3778.35" y="-548.41" font-family="Times,serif" font-size="14.00">d_out</text>
</g>
<!-- n3 -->
<g id="node3" class="node">
<title>n3</title>
<polygon fill="none" stroke="black" points="1455.33,-452.66 1455.33,-467.57 1429.72,-478.11 1393.49,-478.11 1367.87,-467.57 1367.87,-452.66 1393.49,-442.11 1429.72,-442.11 1455.33,-452.66"/>
<text text-anchor="middle" x="1411.6" y="-456.41" font-family="Times,serif" font-size="14.00">empty</text>
</g>
<!-- n3&#45;&gt;c19 -->
<g id="edge20" class="edge">
<title>n3:e&#45;&gt;c19:w</title>
<path fill="none" stroke="black" d="M1456.6,-460.11C1678.41,-460.11 1733.4,-476.33 1954.65,-492.11 2385.4,-522.85 2495.42,-509.92 2923.32,-568.11 2935.44,-569.76 2940.46,-572.88 2949.09,-574.33"/>
<polygon fill="black" stroke="black" points="2949.08,-577.84 2959.32,-575.11 2949.62,-570.86 2949.08,-577.84"/>
</g>
<!-- n4 -->
<g id="node4" class="node">
<title>n4</title>
<polygon fill="none" stroke="black" points="2858.77,-452.66 2858.77,-467.57 2842.2,-478.11 2818.77,-478.11 2802.21,-467.57 2802.21,-452.66 2818.77,-442.11 2842.2,-442.11 2858.77,-452.66"/>
<text text-anchor="middle" x="2830.49" y="-456.41" font-family="Times,serif" font-size="14.00">full</text>
</g>
<!-- n4&#45;&gt;c19 -->
<g id="edge22" class="edge">
<title>n4:e&#45;&gt;c19:w</title>
<path fill="none" stroke="black" d="M2859.49,-460.11C2891.22,-460.11 2900.05,-470.54 2923.32,-492.11 2943.1,-510.45 2932.26,-542.1 2949.32,-550.19"/>
<polygon fill="black" stroke="black" points="2948.84,-553.66 2959.32,-552.11 2950.16,-546.79 2948.84,-553.66"/>
</g>
<!-- n5 -->
<g id="node5" class="node">
<title>n5</title>
<polygon fill="none" stroke="black" points="979.77,-320.11 887.1,-302.11 979.77,-284.11 1072.44,-302.11 979.77,-320.11"/>
<text text-anchor="middle" x="979.77" y="-298.41" font-family="Times,serif" font-size="14.00">in_sync_r_w</text>
</g>
<!-- c23 -->
<g id="node18" class="node">
<title>c23</title>
<polygon fill="none" stroke="black" points="1108.6,-263.61 1108.6,-332.61 1714.6,-332.61 1714.6,-263.61 1108.6,-263.61"/>
<text text-anchor="middle" x="1135.1" y="-317.41" font-family="Times,serif" font-size="14.00">clk</text>
<polyline fill="none" stroke="black" points="1108.6,-309.61 1161.6,-309.61 "/>
<text text-anchor="middle" x="1135.1" y="-294.41" font-family="Times,serif" font-size="14.00">d_in</text>
<polyline fill="none" stroke="black" points="1108.6,-286.61 1161.6,-286.61 "/>
<text text-anchor="middle" x="1135.1" y="-271.41" font-family="Times,serif" font-size="14.00">reset</text>
<polyline fill="none" stroke="black" points="1161.6,-263.61 1161.6,-332.61 "/>
<text text-anchor="middle" x="1417.6" y="-301.91" font-family="Times,serif" font-size="14.00">r_w</text>
<text text-anchor="middle" x="1417.6" y="-286.91" font-family="Times,serif" font-size="14.00">$paramod\synchronizer\WIDTH=64\ADDR_WIDTH=3\PTR_WIDTH=4</text>
<polyline fill="none" stroke="black" points="1673.6,-263.61 1673.6,-332.61 "/>
<text text-anchor="middle" x="1694.1" y="-294.41" font-family="Times,serif" font-size="14.00">q_2</text>
</g>
<!-- n5&#45;&gt;c23 -->
<g id="edge24" class="edge">
<title>n5:e&#45;&gt;c23:w</title>
<path fill="none" stroke="black" stroke-width="3" d="M1072.6,-302.11C1084.67,-302.11 1089.83,-299.86 1098.45,-298.74"/>
<polygon fill="black" stroke="black" stroke-width="3" points="1098.83,-302.22 1108.6,-298.11 1098.4,-295.24 1098.83,-302.22"/>
</g>
<!-- n6 -->
<g id="node6" class="node">
<title>n6</title>
<polygon fill="none" stroke="black" points="2830.49,-131.11 2737.82,-113.11 2830.49,-95.11 2923.16,-113.11 2830.49,-131.11"/>
<text text-anchor="middle" x="2830.49" y="-109.41" font-family="Times,serif" font-size="14.00">in_sync_w_r</text>
</g>
<!-- c27 -->
<g id="node20" class="node">
<title>c27</title>
<polygon fill="none" stroke="black" points="2996.82,-89.61 2996.82,-158.61 3602.82,-158.61 3602.82,-89.61 2996.82,-89.61"/>
<text text-anchor="middle" x="3023.32" y="-143.41" font-family="Times,serif" font-size="14.00">clk</text>
<polyline fill="none" stroke="black" points="2996.82,-135.61 3049.82,-135.61 "/>
<text text-anchor="middle" x="3023.32" y="-120.41" font-family="Times,serif" font-size="14.00">d_in</text>
<polyline fill="none" stroke="black" points="2996.82,-112.61 3049.82,-112.61 "/>
<text text-anchor="middle" x="3023.32" y="-97.41" font-family="Times,serif" font-size="14.00">reset</text>
<polyline fill="none" stroke="black" points="3049.82,-89.61 3049.82,-158.61 "/>
<text text-anchor="middle" x="3305.82" y="-127.91" font-family="Times,serif" font-size="14.00">w_r</text>
<text text-anchor="middle" x="3305.82" y="-112.91" font-family="Times,serif" font-size="14.00">$paramod\synchronizer\WIDTH=64\ADDR_WIDTH=3\PTR_WIDTH=4</text>
<polyline fill="none" stroke="black" points="3561.82,-89.61 3561.82,-158.61 "/>
<text text-anchor="middle" x="3582.32" y="-120.41" font-family="Times,serif" font-size="14.00">q_2</text>
</g>
<!-- n6&#45;&gt;c27 -->
<g id="edge26" class="edge">
<title>n6:e&#45;&gt;c27:w</title>
<path fill="none" stroke="black" stroke-width="3" d="M2923.32,-113.11C2952.22,-113.11 2961.25,-121.76 2985.65,-123.72"/>
<polygon fill="black" stroke="black" stroke-width="3" points="2985.7,-127.23 2995.82,-124.11 2985.97,-120.23 2985.7,-127.23"/>
</g>
<!-- n7 -->
<g id="node7" class="node">
<title>n7</title>
<polygon fill="none" stroke="black" points="1852.63,-337.11 1750.57,-319.11 1852.63,-301.11 1954.68,-319.11 1852.63,-337.11"/>
<text text-anchor="middle" x="1852.63" y="-315.41" font-family="Times,serif" font-size="14.00">out_sync_r_w</text>
</g>
<!-- c30 -->
<g id="node21" class="node">
<title>c30</title>
<polygon fill="none" stroke="black" points="1990.65,-238.11 1990.65,-330.11 2701.65,-330.11 2701.65,-238.11 1990.65,-238.11"/>
<text text-anchor="middle" x="2045.15" y="-314.91" font-family="Times,serif" font-size="14.00">sync_rd_gptr</text>
<polyline fill="none" stroke="black" points="1990.65,-307.11 2099.65,-307.11 "/>
<text text-anchor="middle" x="2045.15" y="-291.91" font-family="Times,serif" font-size="14.00">wr_clk</text>
<polyline fill="none" stroke="black" points="1990.65,-284.11 2099.65,-284.11 "/>
<text text-anchor="middle" x="2045.15" y="-268.91" font-family="Times,serif" font-size="14.00">wr_en</text>
<polyline fill="none" stroke="black" points="1990.65,-261.11 2099.65,-261.11 "/>
<text text-anchor="middle" x="2045.15" y="-245.91" font-family="Times,serif" font-size="14.00">wr_reset</text>
<polyline fill="none" stroke="black" points="2099.65,-238.11 2099.65,-330.11 "/>
<text text-anchor="middle" x="2349.15" y="-287.91" font-family="Times,serif" font-size="14.00">write</text>
<text text-anchor="middle" x="2349.15" y="-272.91" font-family="Times,serif" font-size="14.00">$paramod\fifo_wr_ctrl\WIDTH=64\ADDR_WIDTH=3\PTR_WIDTH=4</text>
<polyline fill="none" stroke="black" points="2598.65,-238.11 2598.65,-330.11 "/>
<text text-anchor="middle" x="2650.15" y="-311.41" font-family="Times,serif" font-size="14.00">cur_wr_bptr</text>
<polyline fill="none" stroke="black" points="2598.65,-300.11 2701.65,-300.11 "/>
<text text-anchor="middle" x="2650.15" y="-280.91" font-family="Times,serif" font-size="14.00">cur_wr_gptr</text>
<polyline fill="none" stroke="black" points="2598.65,-269.11 2701.65,-269.11 "/>
<text text-anchor="middle" x="2650.15" y="-249.91" font-family="Times,serif" font-size="14.00">full</text>
</g>
<!-- n7&#45;&gt;c30 -->
<g id="edge28" class="edge">
<title>n7:e&#45;&gt;c30:w</title>
<path fill="none" stroke="black" stroke-width="3" d="M1954.65,-319.11C1966.65,-319.11 1971.9,-319.11 1980.53,-319.11"/>
<polygon fill="black" stroke="black" stroke-width="3" points="1980.65,-322.61 1990.65,-319.11 1980.65,-315.61 1980.65,-322.61"/>
</g>
<!-- n8 -->
<g id="node8" class="node">
<title>n8</title>
<polygon fill="none" stroke="black" points="3778.35,-179.11 3676.3,-161.11 3778.35,-143.11 3880.4,-161.11 3778.35,-179.11"/>
<text text-anchor="middle" x="3778.35" y="-157.41" font-family="Times,serif" font-size="14.00">out_sync_w_r</text>
</g>
<!-- c26 -->
<g id="node19" class="node">
<title>c26</title>
<polygon fill="none" stroke="black" points="142.93,-304.11 142.93,-396.11 850.93,-396.11 850.93,-304.11 142.93,-304.11"/>
<text text-anchor="middle" x="198.93" y="-380.91" font-family="Times,serif" font-size="14.00">rd_clk</text>
<polyline fill="none" stroke="black" points="142.93,-373.11 254.93,-373.11 "/>
<text text-anchor="middle" x="198.93" y="-357.91" font-family="Times,serif" font-size="14.00">rd_en</text>
<polyline fill="none" stroke="black" points="142.93,-350.11 254.93,-350.11 "/>
<text text-anchor="middle" x="198.93" y="-334.91" font-family="Times,serif" font-size="14.00">rd_reset</text>
<polyline fill="none" stroke="black" points="142.93,-327.11 254.93,-327.11 "/>
<text text-anchor="middle" x="198.93" y="-311.91" font-family="Times,serif" font-size="14.00">sync_wr_gptr</text>
<polyline fill="none" stroke="black" points="254.93,-304.11 254.93,-396.11 "/>
<text text-anchor="middle" x="502.93" y="-353.91" font-family="Times,serif" font-size="14.00">read</text>
<text text-anchor="middle" x="502.93" y="-338.91" font-family="Times,serif" font-size="14.00">$paramod\fifo_rd_ctrl\WIDTH=64\ADDR_WIDTH=3\PTR_WIDTH=4</text>
<polyline fill="none" stroke="black" points="750.93,-304.11 750.93,-396.11 "/>
<text text-anchor="middle" x="800.93" y="-377.41" font-family="Times,serif" font-size="14.00">cur_rd_bptr</text>
<polyline fill="none" stroke="black" points="750.93,-366.11 850.93,-366.11 "/>
<text text-anchor="middle" x="800.93" y="-346.91" font-family="Times,serif" font-size="14.00">cur_rd_gptr</text>
<polyline fill="none" stroke="black" points="750.93,-335.11 850.93,-335.11 "/>
<text text-anchor="middle" x="800.93" y="-315.91" font-family="Times,serif" font-size="14.00">empty</text>
</g>
<!-- n8&#45;&gt;c26 -->
<g id="edge30" class="edge">
<title>n8:e&#45;&gt;c26:w</title>
<path fill="none" stroke="black" stroke-width="3" d="M3881.35,-161.11C3889.36,-161.11 3886.12,-173.56 3880.35,-179.11 3544.42,-502.41 3297.72,-197.11 2831.49,-197.11 1410.6,-197.11 1410.6,-197.11 1410.6,-197.11 1177.61,-197.11 1119.21,-202.93 886.93,-221.11 555.25,-247.08 375.38,-65.59 142.93,-303.61 142.59,-303.96 142.27,-304.34 141.96,-304.75"/>
<polygon fill="black" stroke="black" stroke-width="3" points="138.45,-305.11 141.93,-315.11 145.45,-305.12 138.45,-305.11"/>
</g>
<!-- n9 -->
<g id="node9" class="node">
<title>n9</title>
<polygon fill="none" stroke="black" points="2346.15,-696.11 2281.97,-678.11 2346.15,-660.11 2410.34,-678.11 2346.15,-696.11"/>
<text text-anchor="middle" x="2346.15" y="-674.41" font-family="Times,serif" font-size="14.00">rd_bptr</text>
</g>
<!-- n9&#45;&gt;c19 -->
<g id="edge32" class="edge">
<title>n9:e&#45;&gt;c19:w</title>
<path fill="none" stroke="black" stroke-width="3" d="M2411.15,-678.11C2639.2,-678.11 2726.85,-824.89 2923.32,-709.11 2948.22,-694.44 2931.83,-655.68 2949.46,-646.22"/>
<polygon fill="black" stroke="black" stroke-width="3" points="2950.27,-649.62 2959.32,-644.11 2948.81,-642.78 2950.27,-649.62"/>
</g>
<!-- n10 -->
<g id="node10" class="node">
<title>n10</title>
<polygon fill="none" stroke="black" points="94.98,-377.66 94.98,-392.57 70.66,-403.11 36.27,-403.11 11.95,-392.57 11.95,-377.66 36.27,-367.11 70.66,-367.11 94.98,-377.66"/>
<text text-anchor="middle" x="53.47" y="-381.41" font-family="Times,serif" font-size="14.00">rd_clk</text>
</g>
<!-- n10&#45;&gt;c19 -->
<g id="edge2" class="edge">
<title>n10:e&#45;&gt;c19:w</title>
<path fill="none" stroke="black" d="M96.47,-385.11C118.95,-385.11 121.15,-399.52 142.93,-405.11 464.69,-487.78 555.61,-452.84 886.93,-477.11 1708.27,-537.29 1914.36,-548.29 2737.65,-568.11 2820.15,-570.1 2847.73,-601.21 2923.32,-568.11 2941.05,-560.35 2938.05,-539.08 2949.41,-531.69"/>
<polygon fill="black" stroke="black" points="2950.52,-535.02 2959.32,-529.11 2948.76,-528.24 2950.52,-535.02"/>
</g>
<!-- n10&#45;&gt;c26 -->
<g id="edge3" class="edge">
<title>n10:e&#45;&gt;c26:w</title>
<path fill="none" stroke="black" d="M96.47,-385.11C113.24,-385.11 119.8,-385.11 132.74,-385.11"/>
<polygon fill="black" stroke="black" points="132.93,-388.61 142.93,-385.11 132.93,-381.61 132.93,-388.61"/>
</g>
<!-- n10&#45;&gt;c27 -->
<g id="edge4" class="edge">
<title>n10:e&#45;&gt;c27:w</title>
<path fill="none" stroke="black" d="M96.47,-385.11C141.88,-385.11 106.22,-320.85 142.93,-294.11 447.12,-72.6 602.47,-159.11 978.77,-159.11 978.77,-159.11 978.77,-159.11 2347.15,-159.11 2632.12,-159.11 2705.76,-147.39 2985.77,-147.12"/>
<polygon fill="black" stroke="black" points="2985.83,-150.62 2995.82,-147.11 2985.82,-143.62 2985.83,-150.62"/>
</g>
<!-- n11 -->
<g id="node11" class="node">
<title>n11</title>
<polygon fill="none" stroke="black" points="92.76,-527.66 92.76,-542.57 69.74,-553.11 37.19,-553.11 14.17,-542.57 14.17,-527.66 37.19,-517.11 69.74,-517.11 92.76,-527.66"/>
<text text-anchor="middle" x="53.47" y="-531.41" font-family="Times,serif" font-size="14.00">rd_en</text>
</g>
<!-- n11&#45;&gt;c19 -->
<g id="edge5" class="edge">
<title>n11:e&#45;&gt;c19:w</title>
<path fill="none" stroke="black" d="M93.47,-535.11C117.71,-535.11 119.26,-552.88 142.93,-558.11 450.18,-626.05 536.29,-561.99 850.93,-558.11 1784.78,-546.6 2020.25,-506.41 2949.05,-506.12"/>
<polygon fill="black" stroke="black" points="2949.32,-509.62 2959.32,-506.11 2949.32,-502.62 2949.32,-509.62"/>
</g>
<!-- n11&#45;&gt;c26 -->
<g id="edge6" class="edge">
<title>n11:e&#45;&gt;c26:w</title>
<path fill="none" stroke="black" d="M93.47,-535.11C169.69,-535.11 72.9,-377.95 132.9,-363.22"/>
<polygon fill="black" stroke="black" points="133.37,-366.69 142.93,-362.11 132.61,-359.73 133.37,-366.69"/>
</g>
<!-- n12 -->
<g id="node12" class="node">
<title>n12</title>
<polygon fill="none" stroke="black" points="106.9,-218.66 106.9,-233.57 75.6,-244.11 31.33,-244.11 0.03,-233.57 0.03,-218.66 31.33,-208.11 75.6,-208.11 106.9,-218.66"/>
<text text-anchor="middle" x="53.47" y="-222.41" font-family="Times,serif" font-size="14.00">rd_reset</text>
</g>
<!-- n12&#45;&gt;c26 -->
<g id="edge7" class="edge">
<title>n12:e&#45;&gt;c26:w</title>
<path fill="none" stroke="black" d="M106.93,-226.11C155.13,-226.11 100.62,-321.3 132.77,-336.17"/>
<polygon fill="black" stroke="black" points="132.45,-339.67 142.93,-338.11 133.77,-332.8 132.45,-339.67"/>
</g>
<!-- n12&#45;&gt;c27 -->
<g id="edge8" class="edge">
<title>n12:e&#45;&gt;c27:w</title>
<path fill="none" stroke="black" d="M106.93,-226.11C146.33,-226.11 110.93,-168.09 142.93,-145.11 445.98,72.52 605.67,-67.11 978.77,-67.11 978.77,-67.11 978.77,-67.11 2347.15,-67.11 2603.37,-67.11 2668.91,-55.83 2923.32,-86.11 2952.3,-89.56 2961.02,-98.69 2985.57,-100.71"/>
<polygon fill="black" stroke="black" points="2985.69,-104.22 2995.82,-101.11 2985.97,-97.23 2985.69,-104.22"/>
</g>
<!-- n13 -->
<g id="node13" class="node">
<title>n13</title>
<polygon fill="none" stroke="black" points="2830.49,-700.11 2763.29,-682.11 2830.49,-664.11 2897.69,-682.11 2830.49,-700.11"/>
<text text-anchor="middle" x="2830.49" y="-678.41" font-family="Times,serif" font-size="14.00">wr_bptr</text>
</g>
<!-- n13&#45;&gt;c19 -->
<g id="edge10" class="edge">
<title>n13:e&#45;&gt;c19:w</title>
<path fill="none" stroke="black" stroke-width="3" d="M2898.49,-682.11C2932.89,-682.11 2923.67,-632.88 2949.22,-622.87"/>
<polygon fill="black" stroke="black" stroke-width="3" points="2950.07,-626.28 2959.32,-621.11 2948.87,-619.38 2950.07,-626.28"/>
</g>
<!-- n14 -->
<g id="node14" class="node">
<title>n14</title>
<polygon fill="none" stroke="black" points="1023.5,-353.66 1023.5,-368.57 997.88,-379.11 961.65,-379.11 936.03,-368.57 936.03,-353.66 961.65,-343.11 997.88,-343.11 1023.5,-353.66"/>
<text text-anchor="middle" x="979.77" y="-357.41" font-family="Times,serif" font-size="14.00">wr_clk</text>
</g>
<!-- n14&#45;&gt;c19 -->
<g id="edge11" class="edge">
<title>n14:e&#45;&gt;c19:w</title>
<path fill="none" stroke="black" d="M1024.77,-361.11C1062.54,-361.11 1071.02,-371.26 1108.6,-375.11 1392.66,-404.24 1465.21,-390.54 1750.6,-400.11 1815.74,-402.3 2865.74,-402.59 2923.32,-433.11 2943.74,-443.94 2935.84,-472.09 2949.32,-480.63"/>
<polygon fill="black" stroke="black" points="2948.77,-484.1 2959.32,-483.11 2950.46,-477.3 2948.77,-484.1"/>
</g>
<!-- n14&#45;&gt;c23 -->
<g id="edge12" class="edge">
<title>n14:e&#45;&gt;c23:w</title>
<path fill="none" stroke="black" d="M1024.77,-361.11C1062.34,-361.11 1066.77,-327.98 1098.38,-322.02"/>
<polygon fill="black" stroke="black" points="1098.95,-325.49 1108.6,-321.11 1098.33,-318.52 1098.95,-325.49"/>
</g>
<!-- n14&#45;&gt;c30 -->
<g id="edge13" class="edge">
<title>n14:e&#45;&gt;c30:w</title>
<path fill="none" stroke="black" d="M1024.77,-361.11C1178.12,-361.11 1579.09,-413.9 1714.6,-342.11 1738.8,-329.3 1726.23,-304.6 1750.6,-292.11 1831.32,-250.77 1864.1,-287.1 1954.65,-292.11 1966.71,-292.78 1971.88,-294.7 1980.5,-295.61"/>
<polygon fill="black" stroke="black" points="1980.49,-299.12 1990.65,-296.11 1980.84,-292.13 1980.49,-299.12"/>
</g>
<!-- n15 -->
<g id="node15" class="node">
<title>n15</title>
<polygon fill="none" stroke="black" points="1894.14,-365.66 1894.14,-380.57 1869.82,-391.11 1835.43,-391.11 1811.11,-380.57 1811.11,-365.66 1835.43,-355.11 1869.82,-355.11 1894.14,-365.66"/>
<text text-anchor="middle" x="1852.63" y="-369.41" font-family="Times,serif" font-size="14.00">wr_en</text>
</g>
<!-- n15&#45;&gt;c19 -->
<g id="edge14" class="edge">
<title>n15:e&#45;&gt;c19:w</title>
<path fill="none" stroke="black" d="M1895.63,-373.11C2124.08,-373.11 2726.02,-284.95 2923.32,-400.11 2946.61,-413.71 2933.2,-448.85 2949.5,-457.94"/>
<polygon fill="black" stroke="black" points="2948.8,-461.37 2959.32,-460.11 2950.32,-454.54 2948.8,-461.37"/>
</g>
<!-- n15&#45;&gt;c30 -->
<g id="edge15" class="edge">
<title>n15:e&#45;&gt;c30:w</title>
<path fill="none" stroke="black" d="M1895.63,-373.11C1924.48,-373.11 1934.01,-366.27 1954.65,-346.11 1977.96,-323.36 1959.3,-282.44 1980.77,-273.76"/>
<polygon fill="black" stroke="black" points="1981.36,-277.21 1990.65,-272.11 1980.21,-270.3 1981.36,-277.21"/>
</g>
<!-- n16 -->
<g id="node16" class="node">
<title>n16</title>
<polygon fill="none" stroke="black" points="1035.42,-240.66 1035.42,-255.57 1002.82,-266.11 956.71,-266.11 924.11,-255.57 924.11,-240.66 956.71,-230.11 1002.82,-230.11 1035.42,-240.66"/>
<text text-anchor="middle" x="979.77" y="-244.41" font-family="Times,serif" font-size="14.00">wr_reset</text>
</g>
<!-- n16&#45;&gt;c23 -->
<g id="edge16" class="edge">
<title>n16:e&#45;&gt;c23:w</title>
<path fill="none" stroke="black" d="M1036.77,-248.11C1067.14,-248.11 1073.34,-269.53 1098.42,-274.22"/>
<polygon fill="black" stroke="black" points="1098.33,-277.72 1108.6,-275.11 1098.95,-270.75 1098.33,-277.72"/>
</g>
<!-- n16&#45;&gt;c30 -->
<g id="edge17" class="edge">
<title>n16:e&#45;&gt;c30:w</title>
<path fill="none" stroke="black" d="M1036.77,-248.11C1457.3,-248.11 1564.97,-249.1 1980.47,-249.11"/>
<polygon fill="black" stroke="black" points="1980.65,-252.61 1990.65,-249.11 1980.65,-245.61 1980.65,-252.61"/>
</g>
<!-- c19&#45;&gt;n2 -->
<g id="edge18" class="edge">
<title>c19:e&#45;&gt;n2:w</title>
<path fill="none" stroke="black" stroke-width="3" d="M3640.32,-552.11C3680.32,-552.11 3692.78,-552.11 3728.25,-552.11"/>
<polygon fill="black" stroke="black" stroke-width="3" points="3728.35,-555.61 3738.35,-552.11 3728.35,-548.61 3728.35,-555.61"/>
</g>
<!-- c23&#45;&gt;n7 -->
<g id="edge27" class="edge">
<title>c23:e&#45;&gt;n7:w</title>
<path fill="none" stroke="black" stroke-width="3" d="M1714.6,-298.11C1729.07,-298.11 1731.6,-310.93 1740.84,-316.54"/>
<polygon fill="black" stroke="black" stroke-width="3" points="1740.04,-319.95 1750.6,-319.11 1741.82,-313.18 1740.04,-319.95"/>
</g>
<!-- c26&#45;&gt;n3 -->
<g id="edge19" class="edge">
<title>c26:e&#45;&gt;n3:w</title>
<path fill="none" stroke="black" d="M850.93,-319.11C885.52,-319.11 859.07,-367.62 886.93,-388.11 1057.87,-513.86 1148.18,-461.81 1356.59,-460.15"/>
<polygon fill="black" stroke="black" points="1356.61,-463.65 1366.6,-460.11 1356.59,-456.65 1356.61,-463.65"/>
</g>
<!-- c26&#45;&gt;n5 -->
<g id="edge23" class="edge">
<title>c26:e&#45;&gt;n5:w</title>
<path fill="none" stroke="black" stroke-width="3" d="M850.93,-351.11C873.73,-351.11 864.45,-316.23 877.22,-305.33"/>
<polygon fill="black" stroke="black" stroke-width="3" points="878.54,-308.58 886.93,-302.11 876.34,-301.93 878.54,-308.58"/>
</g>
<!-- c26&#45;&gt;n9 -->
<g id="edge31" class="edge">
<title>c26:e&#45;&gt;n9:w</title>
<path fill="none" stroke="black" stroke-width="3" d="M850.93,-381.11C882.79,-381.11 861,-424.59 886.93,-443.11 968.66,-501.5 1009.76,-469.26 1108.6,-487.11 1624.9,-580.38 1751.55,-676.88 2271.15,-678.1"/>
<polygon fill="black" stroke="black" stroke-width="3" points="2271.15,-681.6 2281.15,-678.11 2271.16,-674.6 2271.15,-681.6"/>
</g>
<!-- c27&#45;&gt;n8 -->
<g id="edge29" class="edge">
<title>c27:e&#45;&gt;n8:w</title>
<path fill="none" stroke="black" stroke-width="3" d="M3603.82,-124.11C3636.33,-124.11 3639.75,-153.98 3666.34,-160.05"/>
<polygon fill="black" stroke="black" stroke-width="3" points="3666.01,-163.53 3676.32,-161.11 3666.75,-156.57 3666.01,-163.53"/>
</g>
<!-- c30&#45;&gt;n4 -->
<g id="edge21" class="edge">
<title>c30:e&#45;&gt;n4:w</title>
<path fill="none" stroke="black" d="M2701.65,-253.11C2800.2,-253.11 2706.44,-445.82 2791.46,-459.36"/>
<polygon fill="black" stroke="black" points="2791.26,-462.86 2801.49,-460.11 2791.78,-455.88 2791.26,-462.86"/>
</g>
<!-- c30&#45;&gt;n6 -->
<g id="edge25" class="edge">
<title>c30:e&#45;&gt;n6:w</title>
<path fill="none" stroke="black" stroke-width="3" d="M2701.65,-285.11C2775.94,-285.11 2670.82,-129.5 2727.59,-114.3"/>
<polygon fill="black" stroke="black" stroke-width="3" points="2728.13,-117.76 2737.65,-113.11 2727.31,-110.81 2728.13,-117.76"/>
</g>
<!-- c30&#45;&gt;n13 -->
<g id="edge9" class="edge">
<title>c30:e&#45;&gt;n13:w</title>
<path fill="none" stroke="black" stroke-width="3" d="M2701.65,-315.11C2780.61,-315.11 2688.83,-649.88 2752.45,-679.96"/>
<polygon fill="black" stroke="black" stroke-width="3" points="2751.98,-683.44 2762.49,-682.11 2753.45,-676.59 2751.98,-683.44"/>
</g>
</g>
</svg>
