<?xml version="1.0" encoding="UTF-8" standalone="no"?>
<!DOCTYPE svg PUBLIC "-//W3C//DTD SVG 1.1//EN"
 "http://www.w3.org/Graphics/SVG/1.1/DTD/svg11.dtd">
<!-- Generated by graphviz version 2.43.0 (0)
 -->
<!-- Title: fifo_rd_ctrl Pages: 1 -->
<svg width="2315pt" height="398pt"
 viewBox="0.00 0.00 2315.11 397.60" xmlns="http://www.w3.org/2000/svg" xmlns:xlink="http://www.w3.org/1999/xlink">
<g id="graph0" class="graph" transform="scale(1 1) rotate(0) translate(4 393.6)">
<title>fifo_rd_ctrl</title>
<polygon fill="white" stroke="transparent" points="-4,4 -4,-393.6 2311.11,-393.6 2311.11,4 -4,4"/>
<text text-anchor="middle" x="1153.55" y="-7.8" font-family="Times,serif" font-size="14.00">fifo_rd_ctrl</text>
<!-- n3 -->
<g id="node1" class="node">
<title>n3</title>
<polygon fill="none" stroke="black" points="145.42,-113.54 145.42,-128.46 104.29,-139 46.14,-139 5.02,-128.46 5.02,-113.54 46.14,-103 104.29,-103 145.42,-113.54"/>
<text text-anchor="middle" x="75.22" y="-117.3" font-family="Times,serif" font-size="14.00">cur_rd_bptr</text>
</g>
<!-- c17 -->
<g id="node12" class="node">
<title>c17</title>
<polygon fill="none" stroke="black" points="181.57,-136 181.57,-182 286.57,-182 286.57,-136 181.57,-136"/>
<text text-anchor="middle" x="195.07" y="-166.8" font-family="Times,serif" font-size="14.00">A</text>
<polyline fill="none" stroke="black" points="181.57,-159 208.57,-159 "/>
<text text-anchor="middle" x="195.07" y="-143.8" font-family="Times,serif" font-size="14.00">B</text>
<polyline fill="none" stroke="black" points="208.57,-136 208.57,-182 "/>
<text text-anchor="middle" x="234.57" y="-162.8" font-family="Times,serif" font-size="14.00">$16</text>
<text text-anchor="middle" x="234.57" y="-147.8" font-family="Times,serif" font-size="14.00">$add</text>
<polyline fill="none" stroke="black" points="260.57,-136 260.57,-182 "/>
<text text-anchor="middle" x="273.57" y="-155.3" font-family="Times,serif" font-size="14.00">Y</text>
</g>
<!-- n3&#45;&gt;c17 -->
<g id="edge12" class="edge">
<title>n3:e&#45;&gt;c17:w</title>
<path fill="none" stroke="black" stroke-width="3" d="M145.57,-121C168.67,-121 158.92,-156.6 171.76,-167.72"/>
<polygon fill="black" stroke="black" stroke-width="3" points="170.97,-171.15 181.57,-171 173.19,-164.51 170.97,-171.15"/>
</g>
<!-- n4 -->
<g id="node2" class="node">
<title>n4</title>
<polygon fill="none" stroke="black" points="1411.76,-159.54 1411.76,-174.46 1370.64,-185 1312.48,-185 1271.36,-174.46 1271.36,-159.54 1312.48,-149 1370.64,-149 1411.76,-159.54"/>
<text text-anchor="middle" x="1341.56" y="-163.3" font-family="Times,serif" font-size="14.00">cur_rd_gptr</text>
</g>
<!-- n5 -->
<g id="node3" class="node">
<title>n5</title>
<polygon fill="none" stroke="black" points="1738.82,-254.54 1738.82,-269.46 1713.21,-280 1676.98,-280 1651.36,-269.46 1651.36,-254.54 1676.98,-244 1713.21,-244 1738.82,-254.54"/>
<text text-anchor="middle" x="1695.09" y="-258.3" font-family="Times,serif" font-size="14.00">empty</text>
</g>
<!-- c20 -->
<g id="node16" class="node">
<title>c20</title>
<polygon fill="none" stroke="black" points="1774.71,-252 1774.71,-290 1875.71,-290 1875.71,-252 1774.71,-252"/>
<text text-anchor="middle" x="1787.71" y="-267.3" font-family="Times,serif" font-size="14.00">A</text>
<polyline fill="none" stroke="black" points="1800.71,-252 1800.71,-290 "/>
<text text-anchor="middle" x="1825.21" y="-274.8" font-family="Times,serif" font-size="14.00">$14</text>
<text text-anchor="middle" x="1825.21" y="-259.8" font-family="Times,serif" font-size="14.00">$not</text>
<polyline fill="none" stroke="black" points="1849.71,-252 1849.71,-290 "/>
<text text-anchor="middle" x="1862.71" y="-267.3" font-family="Times,serif" font-size="14.00">Y</text>
</g>
<!-- n5&#45;&gt;c20 -->
<g id="edge15" class="edge">
<title>n5:e&#45;&gt;c20:w</title>
<path fill="none" stroke="black" d="M1738.71,-262C1751.21,-262 1755.96,-267.17 1764.71,-269.67"/>
<polygon fill="black" stroke="black" points="1764.33,-273.15 1774.71,-271 1765.26,-266.21 1764.33,-273.15"/>
</g>
<!-- n6 -->
<g id="node4" class="node">
<title>n6</title>
<polygon fill="none" stroke="black" points="1341.56,-239 1249.73,-221 1341.56,-203 1433.39,-221 1341.56,-239"/>
<text text-anchor="middle" x="1341.56" y="-217.3" font-family="Times,serif" font-size="14.00">next_empty</text>
</g>
<!-- c25 -->
<g id="node17" class="node">
<title>c25</title>
<polygon fill="none" stroke="black" points="1469.47,-209.5 1469.47,-278.5 1615.47,-278.5 1615.47,-209.5 1469.47,-209.5"/>
<text text-anchor="middle" x="1497.47" y="-263.3" font-family="Times,serif" font-size="14.00">ARST</text>
<polyline fill="none" stroke="black" points="1469.47,-255.5 1525.47,-255.5 "/>
<text text-anchor="middle" x="1497.47" y="-240.3" font-family="Times,serif" font-size="14.00">CLK</text>
<polyline fill="none" stroke="black" points="1469.47,-232.5 1525.47,-232.5 "/>
<text text-anchor="middle" x="1497.47" y="-217.3" font-family="Times,serif" font-size="14.00">D</text>
<polyline fill="none" stroke="black" points="1525.47,-209.5 1525.47,-278.5 "/>
<text text-anchor="middle" x="1556.47" y="-247.8" font-family="Times,serif" font-size="14.00">$4345</text>
<text text-anchor="middle" x="1556.47" y="-232.8" font-family="Times,serif" font-size="14.00">$adff</text>
<polyline fill="none" stroke="black" points="1587.47,-209.5 1587.47,-278.5 "/>
<text text-anchor="middle" x="1601.47" y="-240.3" font-family="Times,serif" font-size="14.00">Q</text>
</g>
<!-- n6&#45;&gt;c25 -->
<g id="edge17" class="edge">
<title>n6:e&#45;&gt;c25:w</title>
<path fill="none" stroke="black" d="M1433.47,-221C1445.47,-221 1450.72,-221 1459.35,-221"/>
<polygon fill="black" stroke="black" points="1459.47,-224.5 1469.47,-221 1459.47,-217.5 1459.47,-224.5"/>
</g>
<!-- n7 -->
<g id="node5" class="node">
<title>n7</title>
<polygon fill="none" stroke="black" points="421.84,-177 322.8,-159 421.84,-141 520.87,-159 421.84,-177"/>
<text text-anchor="middle" x="421.84" y="-155.3" font-family="Times,serif" font-size="14.00">next_rd_bptr</text>
</g>
<!-- c26 -->
<g id="node18" class="node">
<title>c26</title>
<polygon fill="none" stroke="black" points="1067.64,-23.5 1067.64,-92.5 1213.64,-92.5 1213.64,-23.5 1067.64,-23.5"/>
<text text-anchor="middle" x="1095.64" y="-77.3" font-family="Times,serif" font-size="14.00">ARST</text>
<polyline fill="none" stroke="black" points="1067.64,-69.5 1123.64,-69.5 "/>
<text text-anchor="middle" x="1095.64" y="-54.3" font-family="Times,serif" font-size="14.00">CLK</text>
<polyline fill="none" stroke="black" points="1067.64,-46.5 1123.64,-46.5 "/>
<text text-anchor="middle" x="1095.64" y="-31.3" font-family="Times,serif" font-size="14.00">D</text>
<polyline fill="none" stroke="black" points="1123.64,-23.5 1123.64,-92.5 "/>
<text text-anchor="middle" x="1154.64" y="-61.8" font-family="Times,serif" font-size="14.00">$4346</text>
<text text-anchor="middle" x="1154.64" y="-46.8" font-family="Times,serif" font-size="14.00">$adff</text>
<polyline fill="none" stroke="black" points="1185.64,-23.5 1185.64,-92.5 "/>
<text text-anchor="middle" x="1199.64" y="-54.3" font-family="Times,serif" font-size="14.00">Q</text>
</g>
<!-- n7&#45;&gt;c26 -->
<g id="edge19" class="edge">
<title>n7:e&#45;&gt;c26:w</title>
<path fill="none" stroke="black" stroke-width="3" d="M521.1,-159C766.78,-159 817.2,-38.37 1057.54,-35.07"/>
<polygon fill="black" stroke="black" stroke-width="3" points="1057.67,-38.57 1067.64,-35 1057.62,-31.57 1057.67,-38.57"/>
</g>
<!-- c28 -->
<g id="node21" class="node">
<title>c28</title>
<polygon fill="none" stroke="black" points="557.1,-199 557.1,-245 659.1,-245 659.1,-199 557.1,-199"/>
<text text-anchor="middle" x="570.6" y="-229.8" font-family="Times,serif" font-size="14.00">A</text>
<polyline fill="none" stroke="black" points="557.1,-222 584.1,-222 "/>
<text text-anchor="middle" x="570.6" y="-206.8" font-family="Times,serif" font-size="14.00">B</text>
<polyline fill="none" stroke="black" points="584.1,-199 584.1,-245 "/>
<text text-anchor="middle" x="608.6" y="-225.8" font-family="Times,serif" font-size="14.00">$17</text>
<text text-anchor="middle" x="608.6" y="-210.8" font-family="Times,serif" font-size="14.00">$shr</text>
<polyline fill="none" stroke="black" points="633.1,-199 633.1,-245 "/>
<text text-anchor="middle" x="646.1" y="-218.3" font-family="Times,serif" font-size="14.00">Y</text>
</g>
<!-- n7&#45;&gt;c28 -->
<g id="edge20" class="edge">
<title>n7:e&#45;&gt;c28:w</title>
<path fill="none" stroke="black" stroke-width="3" d="M521.1,-159C553.89,-159 527.77,-217.97 547.21,-231.33"/>
<polygon fill="black" stroke="black" stroke-width="3" points="546.54,-234.78 557.1,-234 548.36,-228.02 546.54,-234.78"/>
</g>
<!-- c29 -->
<g id="node22" class="node">
<title>c29</title>
<polygon fill="none" stroke="black" points="695.1,-187 695.1,-233 797.1,-233 797.1,-187 695.1,-187"/>
<text text-anchor="middle" x="708.6" y="-217.8" font-family="Times,serif" font-size="14.00">A</text>
<polyline fill="none" stroke="black" points="695.1,-210 722.1,-210 "/>
<text text-anchor="middle" x="708.6" y="-194.8" font-family="Times,serif" font-size="14.00">B</text>
<polyline fill="none" stroke="black" points="722.1,-187 722.1,-233 "/>
<text text-anchor="middle" x="746.6" y="-213.8" font-family="Times,serif" font-size="14.00">$18</text>
<text text-anchor="middle" x="746.6" y="-198.8" font-family="Times,serif" font-size="14.00">$xor</text>
<polyline fill="none" stroke="black" points="771.1,-187 771.1,-233 "/>
<text text-anchor="middle" x="784.1" y="-206.3" font-family="Times,serif" font-size="14.00">Y</text>
</g>
<!-- n7&#45;&gt;c29 -->
<g id="edge21" class="edge">
<title>n7:e&#45;&gt;c29:w</title>
<path fill="none" stroke="black" stroke-width="3" d="M521.1,-159C522.17,-159 648.42,-187.67 685.18,-195.85"/>
<polygon fill="black" stroke="black" stroke-width="3" points="684.59,-199.3 695.1,-198 686.07,-192.46 684.59,-199.3"/>
</g>
<!-- n8 -->
<g id="node6" class="node">
<title>n8</title>
<polygon fill="none" stroke="black" points="932.37,-258 833.34,-240 932.37,-222 1031.41,-240 932.37,-258"/>
<text text-anchor="middle" x="932.37" y="-236.3" font-family="Times,serif" font-size="14.00">next_rd_gptr</text>
</g>
<!-- c19 -->
<g id="node15" class="node">
<title>c19</title>
<polygon fill="none" stroke="black" points="1092.14,-276 1092.14,-322 1189.14,-322 1189.14,-276 1092.14,-276"/>
<text text-anchor="middle" x="1105.64" y="-306.8" font-family="Times,serif" font-size="14.00">A</text>
<polyline fill="none" stroke="black" points="1092.14,-299 1119.14,-299 "/>
<text text-anchor="middle" x="1105.64" y="-283.8" font-family="Times,serif" font-size="14.00">B</text>
<polyline fill="none" stroke="black" points="1119.14,-276 1119.14,-322 "/>
<text text-anchor="middle" x="1141.14" y="-302.8" font-family="Times,serif" font-size="14.00">$19</text>
<text text-anchor="middle" x="1141.14" y="-287.8" font-family="Times,serif" font-size="14.00">$eq</text>
<polyline fill="none" stroke="black" points="1163.14,-276 1163.14,-322 "/>
<text text-anchor="middle" x="1176.14" y="-295.3" font-family="Times,serif" font-size="14.00">Y</text>
</g>
<!-- n8&#45;&gt;c19 -->
<g id="edge23" class="edge">
<title>n8:e&#45;&gt;c19:w</title>
<path fill="none" stroke="black" stroke-width="3" d="M1031.64,-240C1061.37,-240 1058.41,-276.95 1080.73,-285.33"/>
<polygon fill="black" stroke="black" stroke-width="3" points="1080.2,-288.79 1090.64,-287 1081.36,-281.88 1080.2,-288.79"/>
</g>
<!-- c27 -->
<g id="node19" class="node">
<title>c27</title>
<polygon fill="none" stroke="black" points="1067.64,-149.5 1067.64,-218.5 1213.64,-218.5 1213.64,-149.5 1067.64,-149.5"/>
<text text-anchor="middle" x="1095.64" y="-203.3" font-family="Times,serif" font-size="14.00">ARST</text>
<polyline fill="none" stroke="black" points="1067.64,-195.5 1123.64,-195.5 "/>
<text text-anchor="middle" x="1095.64" y="-180.3" font-family="Times,serif" font-size="14.00">CLK</text>
<polyline fill="none" stroke="black" points="1067.64,-172.5 1123.64,-172.5 "/>
<text text-anchor="middle" x="1095.64" y="-157.3" font-family="Times,serif" font-size="14.00">D</text>
<polyline fill="none" stroke="black" points="1123.64,-149.5 1123.64,-218.5 "/>
<text text-anchor="middle" x="1154.64" y="-187.8" font-family="Times,serif" font-size="14.00">$4347</text>
<text text-anchor="middle" x="1154.64" y="-172.8" font-family="Times,serif" font-size="14.00">$adff</text>
<polyline fill="none" stroke="black" points="1185.64,-149.5 1185.64,-218.5 "/>
<text text-anchor="middle" x="1199.64" y="-180.3" font-family="Times,serif" font-size="14.00">Q</text>
</g>
<!-- n8&#45;&gt;c27 -->
<g id="edge24" class="edge">
<title>n8:e&#45;&gt;c27:w</title>
<path fill="none" stroke="black" stroke-width="3" d="M1031.64,-240C1066.16,-240 1036.85,-176.79 1057.91,-163.45"/>
<polygon fill="black" stroke="black" stroke-width="3" points="1058.8,-166.84 1067.64,-161 1057.09,-160.05 1058.8,-166.84"/>
</g>
<!-- n9 -->
<g id="node7" class="node">
<title>n9</title>
<polygon fill="none" stroke="black" points="973.89,-113.54 973.89,-128.46 949.57,-139 915.18,-139 890.86,-128.46 890.86,-113.54 915.18,-103 949.57,-103 973.89,-113.54"/>
<text text-anchor="middle" x="932.37" y="-117.3" font-family="Times,serif" font-size="14.00">rd_clk</text>
</g>
<!-- n9&#45;&gt;c25 -->
<g id="edge25" class="edge">
<title>n9:e&#45;&gt;c25:w</title>
<path fill="none" stroke="black" d="M975.37,-121C1077.26,-121 1351.72,-79.19 1433.47,-140 1469.5,-166.8 1428.5,-232.03 1459.37,-242.56"/>
<polygon fill="black" stroke="black" points="1459.08,-246.05 1469.47,-244 1460.07,-239.12 1459.08,-246.05"/>
</g>
<!-- n9&#45;&gt;c26 -->
<g id="edge26" class="edge">
<title>n9:e&#45;&gt;c26:w</title>
<path fill="none" stroke="black" d="M975.37,-121C1004.37,-121 1007.92,-104.67 1031.64,-88 1045.35,-78.36 1046.82,-64.81 1057.73,-59.88"/>
<polygon fill="black" stroke="black" points="1058.47,-63.3 1067.64,-58 1057.17,-56.43 1058.47,-63.3"/>
</g>
<!-- n9&#45;&gt;c27 -->
<g id="edge27" class="edge">
<title>n9:e&#45;&gt;c27:w</title>
<path fill="none" stroke="black" d="M975.37,-121C1005.55,-121 1006.74,-141.95 1031.64,-159 1044.32,-167.69 1047.28,-178.23 1057.53,-182.29"/>
<polygon fill="black" stroke="black" points="1057.2,-185.79 1067.64,-184 1058.37,-178.88 1057.2,-185.79"/>
</g>
<!-- n10 -->
<g id="node8" class="node">
<title>n10</title>
<polygon fill="none" stroke="black" points="1864.5,-207.54 1864.5,-222.46 1841.48,-233 1808.93,-233 1785.92,-222.46 1785.92,-207.54 1808.93,-197 1841.48,-197 1864.5,-207.54"/>
<text text-anchor="middle" x="1825.21" y="-211.3" font-family="Times,serif" font-size="14.00">rd_en</text>
</g>
<!-- c18 -->
<g id="node14" class="node">
<title>c18</title>
<polygon fill="none" stroke="black" points="1911.71,-236 1911.71,-282 2016.71,-282 2016.71,-236 1911.71,-236"/>
<text text-anchor="middle" x="1925.21" y="-266.8" font-family="Times,serif" font-size="14.00">A</text>
<polyline fill="none" stroke="black" points="1911.71,-259 1938.71,-259 "/>
<text text-anchor="middle" x="1925.21" y="-243.8" font-family="Times,serif" font-size="14.00">B</text>
<polyline fill="none" stroke="black" points="1938.71,-236 1938.71,-282 "/>
<text text-anchor="middle" x="1964.71" y="-262.8" font-family="Times,serif" font-size="14.00">$15</text>
<text text-anchor="middle" x="1964.71" y="-247.8" font-family="Times,serif" font-size="14.00">$and</text>
<polyline fill="none" stroke="black" points="1990.71,-236 1990.71,-282 "/>
<text text-anchor="middle" x="2003.71" y="-255.3" font-family="Times,serif" font-size="14.00">Y</text>
</g>
<!-- n10&#45;&gt;c18 -->
<g id="edge3" class="edge">
<title>n10:e&#45;&gt;c18:w</title>
<path fill="none" stroke="black" d="M1865.21,-215C1886.37,-215 1887.07,-237.78 1901.83,-244.9"/>
<polygon fill="black" stroke="black" points="1901.2,-248.34 1911.71,-247 1902.65,-241.5 1901.2,-248.34"/>
</g>
<!-- n11 -->
<g id="node9" class="node">
<title>n11</title>
<polygon fill="none" stroke="black" points="985.8,-178.54 985.8,-193.46 954.51,-204 910.24,-204 878.94,-193.46 878.94,-178.54 910.24,-168 954.51,-168 985.8,-178.54"/>
<text text-anchor="middle" x="932.37" y="-182.3" font-family="Times,serif" font-size="14.00">rd_reset</text>
</g>
<!-- n11&#45;&gt;c25 -->
<g id="edge4" class="edge">
<title>n11:e&#45;&gt;c25:w</title>
<path fill="none" stroke="black" d="M987.37,-186C1027.64,-186 1029.13,-216.26 1067.64,-228 1236.01,-279.3 1288.07,-267.48 1459.36,-267.01"/>
<polygon fill="black" stroke="black" points="1459.48,-270.51 1469.47,-267 1459.47,-263.51 1459.48,-270.51"/>
</g>
<!-- n11&#45;&gt;c26 -->
<g id="edge5" class="edge">
<title>n11:e&#45;&gt;c26:w</title>
<path fill="none" stroke="black" d="M987.37,-186C1013.3,-186 1015.39,-168.21 1031.64,-148 1050.26,-124.85 1037.85,-90.64 1057.52,-82.69"/>
<polygon fill="black" stroke="black" points="1058.36,-86.1 1067.64,-81 1057.2,-79.2 1058.36,-86.1"/>
</g>
<!-- n11&#45;&gt;c27 -->
<g id="edge6" class="edge">
<title>n11:e&#45;&gt;c27:w</title>
<path fill="none" stroke="black" d="M987.37,-186C1020.65,-186 1029.2,-203.1 1057.65,-206.44"/>
<polygon fill="black" stroke="black" points="1057.46,-209.93 1067.64,-207 1057.85,-202.94 1057.46,-209.93"/>
</g>
<!-- n12 -->
<g id="node10" class="node">
<title>n12</title>
<polygon fill="none" stroke="black" points="2120.72,-287 2052.69,-269 2120.72,-251 2188.76,-269 2120.72,-287"/>
<text text-anchor="middle" x="2120.72" y="-265.3" font-family="Times,serif" font-size="14.00">rd_valid</text>
</g>
<!-- x0 -->
<g id="node13" class="node">
<title>x0</title>
<path fill="none" stroke="black" d="M2236.74,-293C2236.74,-293 2287.74,-293 2287.74,-293 2293.74,-293 2299.74,-299 2299.74,-305 2299.74,-305 2299.74,-327 2299.74,-327 2299.74,-333 2293.74,-339 2287.74,-339 2287.74,-339 2236.74,-339 2236.74,-339 2230.74,-339 2224.74,-333 2224.74,-327 2224.74,-327 2224.74,-305 2224.74,-305 2224.74,-299 2230.74,-293 2236.74,-293"/>
<text text-anchor="middle" x="2262.24" y="-323.8" font-family="Times,serif" font-size="14.00">0 &#45;&gt; 3:1</text>
<polyline fill="none" stroke="black" points="2224.74,-316 2299.74,-316 "/>
<text text-anchor="middle" x="2262.24" y="-300.8" font-family="Times,serif" font-size="14.00">0:0 &#45; 0:0</text>
</g>
<!-- n12&#45;&gt;x0 -->
<g id="edge8" class="edge">
<title>n12:e&#45;&gt;x0:w</title>
<path fill="none" stroke="black" d="M2188.74,-269C2206.87,-269 2204.58,-292.11 2215.05,-300.77"/>
<polygon fill="black" stroke="black" points="2214.15,-304.16 2224.74,-304 2216.36,-297.52 2214.15,-304.16"/>
</g>
<!-- n13 -->
<g id="node11" class="node">
<title>n13</title>
<polygon fill="none" stroke="black" points="1010.96,-297.54 1010.96,-312.46 964.92,-323 899.82,-323 853.79,-312.46 853.79,-297.54 899.82,-287 964.92,-287 1010.96,-297.54"/>
<text text-anchor="middle" x="932.37" y="-301.3" font-family="Times,serif" font-size="14.00">sync_wr_gptr</text>
</g>
<!-- n13&#45;&gt;c19 -->
<g id="edge9" class="edge">
<title>n13:e&#45;&gt;c19:w</title>
<path fill="none" stroke="black" stroke-width="3" d="M1012.37,-305C1043.58,-305 1053.67,-309.8 1080.42,-310.81"/>
<polygon fill="black" stroke="black" stroke-width="3" points="1080.58,-314.32 1090.64,-311 1080.71,-307.32 1080.58,-314.32"/>
</g>
<!-- c17&#45;&gt;n7 -->
<g id="edge18" class="edge">
<title>c17:e&#45;&gt;n7:w</title>
<path fill="none" stroke="black" stroke-width="3" d="M286.57,-159C298.57,-159 303.82,-159 312.44,-159"/>
<polygon fill="black" stroke="black" stroke-width="3" points="312.57,-162.5 322.57,-159 312.57,-155.5 312.57,-162.5"/>
</g>
<!-- x0&#45;&gt;c17 -->
<g id="edge1" class="edge">
<title>x0:e&#45;&gt;c17:w</title>
<path fill="none" stroke="black" stroke-width="3" d="M2307.11,-326.88C2306.09,-331.38 2303.49,-336.28 2300.24,-339.5 2194.46,-444.42 2114.2,-351 1965.21,-351 607.1,-351 607.1,-351 607.1,-351 471.36,-351 416.6,-337.89 322.57,-240 288.54,-204.57 326.56,-164.02 286.57,-135.5 269.79,-123.54 214.36,-120.36 188.77,-138.34"/>
<polygon fill="none" stroke="black" stroke-width="3" points="2306.94,-326.56 2300.57,-323.18 2301.24,-316 2307.61,-319.38 2306.94,-326.56"/>
<polygon fill="none" stroke="black" stroke-width="3" points="188.57,-138.53 187.14,-145.6 180.07,-147 181.49,-139.93 188.57,-138.53"/>
</g>
<!-- c18&#45;&gt;n12 -->
<g id="edge7" class="edge">
<title>c18:e&#45;&gt;n12:w</title>
<path fill="none" stroke="black" d="M2016.71,-259C2029.29,-259 2033.94,-264.74 2042.68,-267.52"/>
<polygon fill="black" stroke="black" points="2042.3,-271.01 2052.71,-269 2043.32,-264.08 2042.3,-271.01"/>
</g>
<!-- c19&#45;&gt;n6 -->
<g id="edge16" class="edge">
<title>c19:e&#45;&gt;n6:w</title>
<path fill="none" stroke="black" d="M1190.64,-299C1230.2,-299 1210.62,-234.39 1239.55,-222.78"/>
<polygon fill="black" stroke="black" points="1240.4,-226.18 1249.64,-221 1239.19,-219.29 1240.4,-226.18"/>
</g>
<!-- c20&#45;&gt;c18 -->
<g id="edge2" class="edge">
<title>c20:e&#45;&gt;c18:w</title>
<path fill="none" stroke="black" d="M1875.71,-271C1887.71,-271 1892.96,-271 1901.58,-271"/>
<polygon fill="black" stroke="black" points="1901.71,-274.5 1911.71,-271 1901.71,-267.5 1901.71,-274.5"/>
</g>
<!-- c25&#45;&gt;n5 -->
<g id="edge14" class="edge">
<title>c25:e&#45;&gt;n5:w</title>
<path fill="none" stroke="black" d="M1615.47,-244C1629.31,-244 1632.58,-254.77 1641.62,-259.65"/>
<polygon fill="black" stroke="black" points="1640.93,-263.08 1651.47,-262 1642.56,-256.27 1640.93,-263.08"/>
</g>
<!-- c26&#45;&gt;n3 -->
<g id="edge11" class="edge">
<title>c26:e&#45;&gt;n3:w</title>
<path fill="none" stroke="black" stroke-width="3" d="M1214.64,-58C1230.2,-58 1224.8,-82.15 1213.64,-93 1190.38,-115.61 1100.07,-93.96 1067.64,-93 924.99,-88.78 889.82,-74 747.1,-74 420.84,-74 420.84,-74 420.84,-74 311.92,-74 286.54,-97.96 181.57,-127 165.31,-131.5 162.21,-136.3 145.57,-139 83.99,-148.99 50.53,-181.87 5.22,-139 2.85,-136.76 0.92,-133.37 0,-130.14"/>
<polygon fill="black" stroke="black" stroke-width="3" points="3.2,-131.55 4.22,-121 -3.15,-128.61 3.2,-131.55"/>
</g>
<!-- c27&#45;&gt;n4 -->
<g id="edge13" class="edge">
<title>c27:e&#45;&gt;n4:w</title>
<path fill="none" stroke="black" stroke-width="3" d="M1213.64,-184C1236.12,-184 1242.45,-171.67 1260.13,-168.01"/>
<polygon fill="black" stroke="black" stroke-width="3" points="1260.94,-171.45 1270.56,-167 1260.27,-164.48 1260.94,-171.45"/>
</g>
<!-- v1 -->
<g id="node20" class="node">
<title>v1</title>
<ellipse fill="none" stroke="black" cx="421.84" cy="-213" rx="27" ry="18"/>
<text text-anchor="middle" x="421.84" y="-209.3" font-family="Times,serif" font-size="14.00">1</text>
</g>
<!-- v1&#45;&gt;c28 -->
<g id="edge28" class="edge">
<title>v1:e&#45;&gt;c28:w</title>
<path fill="none" stroke="black" stroke-width="3" d="M449.84,-213C493.99,-213 507.45,-210.43 547.05,-210.05"/>
<polygon fill="black" stroke="black" stroke-width="3" points="547.12,-213.55 557.1,-210 547.09,-206.55 547.12,-213.55"/>
</g>
<!-- c28&#45;&gt;c29 -->
<g id="edge10" class="edge">
<title>c28:e&#45;&gt;c29:w</title>
<path fill="none" stroke="black" stroke-width="3" d="M659.1,-222C671.1,-222 676.35,-222 684.98,-222"/>
<polygon fill="black" stroke="black" stroke-width="3" points="685.1,-225.5 695.1,-222 685.1,-218.5 685.1,-225.5"/>
</g>
<!-- c29&#45;&gt;n8 -->
<g id="edge22" class="edge">
<title>c29:e&#45;&gt;n8:w</title>
<path fill="none" stroke="black" stroke-width="3" d="M797.1,-210C813.86,-210 813.48,-229.43 823.54,-237.01"/>
<polygon fill="black" stroke="black" stroke-width="3" points="822.52,-240.36 833.1,-240 824.6,-233.68 822.52,-240.36"/>
</g>
</g>
</svg>
