<?xml version="1.0" encoding="UTF-8" standalone="no"?>
<!DOCTYPE svg PUBLIC "-//W3C//DTD SVG 1.1//EN"
 "http://www.w3.org/Graphics/SVG/1.1/DTD/svg11.dtd">
<!-- Generated by graphviz version 2.43.0 (0)
 -->
<!-- Title: fifo_wr_ctrl Pages: 1 -->
<svg width="2267pt" height="385pt"
 viewBox="0.00 0.00 2267.05 385.43" xmlns="http://www.w3.org/2000/svg" xmlns:xlink="http://www.w3.org/1999/xlink">
<g id="graph0" class="graph" transform="scale(1 1) rotate(0) translate(4 381.43)">
<title>fifo_wr_ctrl</title>
<polygon fill="white" stroke="transparent" points="-4,4 -4,-381.43 2263.05,-381.43 2263.05,4 -4,4"/>
<text text-anchor="middle" x="1129.53" y="-7.8" font-family="Times,serif" font-size="14.00">fifo_wr_ctrl</text>
<!-- n4 -->
<g id="node1" class="node">
<title>n4</title>
<polygon fill="none" stroke="black" points="150.64,-286.54 150.64,-301.46 108.21,-312 48.22,-312 5.8,-301.46 5.8,-286.54 48.22,-276 108.21,-276 150.64,-286.54"/>
<text text-anchor="middle" x="78.22" y="-290.3" font-family="Times,serif" font-size="14.00">cur_wr_bptr</text>
</g>
<!-- c18 -->
<g id="node12" class="node">
<title>c18</title>
<polygon fill="none" stroke="black" points="186.68,-291 186.68,-337 291.68,-337 291.68,-291 186.68,-291"/>
<text text-anchor="middle" x="200.18" y="-321.8" font-family="Times,serif" font-size="14.00">A</text>
<polyline fill="none" stroke="black" points="186.68,-314 213.68,-314 "/>
<text text-anchor="middle" x="200.18" y="-298.8" font-family="Times,serif" font-size="14.00">B</text>
<polyline fill="none" stroke="black" points="213.68,-291 213.68,-337 "/>
<text text-anchor="middle" x="239.68" y="-317.8" font-family="Times,serif" font-size="14.00">$23</text>
<text text-anchor="middle" x="239.68" y="-302.8" font-family="Times,serif" font-size="14.00">$add</text>
<polyline fill="none" stroke="black" points="265.68,-291 265.68,-337 "/>
<text text-anchor="middle" x="278.68" y="-310.3" font-family="Times,serif" font-size="14.00">Y</text>
</g>
<!-- n4&#45;&gt;c18 -->
<g id="edge19" class="edge">
<title>n4:e&#45;&gt;c18:w</title>
<path fill="none" stroke="black" stroke-width="3" d="M150.68,-294C167.9,-294 166.86,-314.72 176.94,-322.81"/>
<polygon fill="black" stroke="black" stroke-width="3" points="176.08,-326.22 186.68,-326 178.26,-319.56 176.08,-326.22"/>
</g>
<!-- n5 -->
<g id="node2" class="node">
<title>n5</title>
<polygon fill="none" stroke="black" points="1410.66,-166.54 1410.66,-181.46 1368.24,-192 1308.25,-192 1265.82,-181.46 1265.82,-166.54 1308.25,-156 1368.24,-156 1410.66,-166.54"/>
<text text-anchor="middle" x="1338.24" y="-170.3" font-family="Times,serif" font-size="14.00">cur_wr_gptr</text>
</g>
<!-- n6 -->
<g id="node3" class="node">
<title>n6</title>
<polygon fill="none" stroke="black" points="1685.12,-187.54 1685.12,-202.46 1668.56,-213 1645.13,-213 1628.56,-202.46 1628.56,-187.54 1645.13,-177 1668.56,-177 1685.12,-187.54"/>
<text text-anchor="middle" x="1656.84" y="-191.3" font-family="Times,serif" font-size="14.00">full</text>
</g>
<!-- c21 -->
<g id="node17" class="node">
<title>c21</title>
<polygon fill="none" stroke="black" points="1720.98,-186 1720.98,-224 1821.98,-224 1821.98,-186 1720.98,-186"/>
<text text-anchor="middle" x="1733.98" y="-201.3" font-family="Times,serif" font-size="14.00">A</text>
<polyline fill="none" stroke="black" points="1746.98,-186 1746.98,-224 "/>
<text text-anchor="middle" x="1771.48" y="-208.8" font-family="Times,serif" font-size="14.00">$21</text>
<text text-anchor="middle" x="1771.48" y="-193.8" font-family="Times,serif" font-size="14.00">$not</text>
<polyline fill="none" stroke="black" points="1795.98,-186 1795.98,-224 "/>
<text text-anchor="middle" x="1808.98" y="-201.3" font-family="Times,serif" font-size="14.00">Y</text>
</g>
<!-- n6&#45;&gt;c21 -->
<g id="edge22" class="edge">
<title>n6:e&#45;&gt;c21:w</title>
<path fill="none" stroke="black" d="M1684.98,-195C1697.57,-195 1702.21,-200.74 1710.96,-203.52"/>
<polygon fill="black" stroke="black" points="1710.58,-207.01 1720.98,-205 1711.6,-200.08 1710.58,-207.01"/>
</g>
<!-- n7 -->
<g id="node4" class="node">
<title>n7</title>
<polygon fill="none" stroke="black" points="1338.24,-80 1266.35,-62 1338.24,-44 1410.13,-62 1338.24,-80"/>
<text text-anchor="middle" x="1338.24" y="-58.3" font-family="Times,serif" font-size="14.00">next_full</text>
</g>
<!-- c27 -->
<g id="node20" class="node">
<title>c27</title>
<polygon fill="none" stroke="black" points="1446.7,-85.5 1446.7,-154.5 1592.7,-154.5 1592.7,-85.5 1446.7,-85.5"/>
<text text-anchor="middle" x="1474.7" y="-139.3" font-family="Times,serif" font-size="14.00">ARST</text>
<polyline fill="none" stroke="black" points="1446.7,-131.5 1502.7,-131.5 "/>
<text text-anchor="middle" x="1474.7" y="-116.3" font-family="Times,serif" font-size="14.00">CLK</text>
<polyline fill="none" stroke="black" points="1446.7,-108.5 1502.7,-108.5 "/>
<text text-anchor="middle" x="1474.7" y="-93.3" font-family="Times,serif" font-size="14.00">D</text>
<polyline fill="none" stroke="black" points="1502.7,-85.5 1502.7,-154.5 "/>
<text text-anchor="middle" x="1533.7" y="-123.8" font-family="Times,serif" font-size="14.00">$4348</text>
<text text-anchor="middle" x="1533.7" y="-108.8" font-family="Times,serif" font-size="14.00">$adff</text>
<polyline fill="none" stroke="black" points="1564.7,-85.5 1564.7,-154.5 "/>
<text text-anchor="middle" x="1578.7" y="-116.3" font-family="Times,serif" font-size="14.00">Q</text>
</g>
<!-- n7&#45;&gt;c27 -->
<g id="edge24" class="edge">
<title>n7:e&#45;&gt;c27:w</title>
<path fill="none" stroke="black" d="M1410.7,-62C1428.83,-62 1426.54,-85.11 1437.01,-93.77"/>
<polygon fill="black" stroke="black" points="1436.11,-97.16 1446.7,-97 1438.32,-90.52 1436.11,-97.16"/>
</g>
<!-- n8 -->
<g id="node5" class="node">
<title>n8</title>
<polygon fill="none" stroke="black" points="429.7,-233 327.65,-215 429.7,-197 531.76,-215 429.7,-233"/>
<text text-anchor="middle" x="429.7" y="-211.3" font-family="Times,serif" font-size="14.00">next_wr_bptr</text>
</g>
<!-- c29 -->
<g id="node22" class="node">
<title>c29</title>
<polygon fill="none" stroke="black" points="1083.78,-227.5 1083.78,-296.5 1229.78,-296.5 1229.78,-227.5 1083.78,-227.5"/>
<text text-anchor="middle" x="1111.78" y="-281.3" font-family="Times,serif" font-size="14.00">ARST</text>
<polyline fill="none" stroke="black" points="1083.78,-273.5 1139.78,-273.5 "/>
<text text-anchor="middle" x="1111.78" y="-258.3" font-family="Times,serif" font-size="14.00">CLK</text>
<polyline fill="none" stroke="black" points="1083.78,-250.5 1139.78,-250.5 "/>
<text text-anchor="middle" x="1111.78" y="-235.3" font-family="Times,serif" font-size="14.00">D</text>
<polyline fill="none" stroke="black" points="1139.78,-227.5 1139.78,-296.5 "/>
<text text-anchor="middle" x="1170.78" y="-265.8" font-family="Times,serif" font-size="14.00">$4350</text>
<text text-anchor="middle" x="1170.78" y="-250.8" font-family="Times,serif" font-size="14.00">$adff</text>
<polyline fill="none" stroke="black" points="1201.78,-227.5 1201.78,-296.5 "/>
<text text-anchor="middle" x="1215.78" y="-258.3" font-family="Times,serif" font-size="14.00">Q</text>
</g>
<!-- n8&#45;&gt;c29 -->
<g id="edge26" class="edge">
<title>n8:e&#45;&gt;c29:w</title>
<path fill="none" stroke="black" stroke-width="3" d="M531.73,-215C773.84,-215 836.43,-238.33 1073.46,-238.99"/>
<polygon fill="black" stroke="black" stroke-width="3" points="1073.78,-242.49 1083.78,-239 1073.79,-235.49 1073.78,-242.49"/>
</g>
<!-- c30 -->
<g id="node24" class="node">
<title>c30</title>
<polygon fill="none" stroke="black" points="567.73,-149 567.73,-195 669.73,-195 669.73,-149 567.73,-149"/>
<text text-anchor="middle" x="581.23" y="-179.8" font-family="Times,serif" font-size="14.00">A</text>
<polyline fill="none" stroke="black" points="567.73,-172 594.73,-172 "/>
<text text-anchor="middle" x="581.23" y="-156.8" font-family="Times,serif" font-size="14.00">B</text>
<polyline fill="none" stroke="black" points="594.73,-149 594.73,-195 "/>
<text text-anchor="middle" x="619.23" y="-175.8" font-family="Times,serif" font-size="14.00">$24</text>
<text text-anchor="middle" x="619.23" y="-160.8" font-family="Times,serif" font-size="14.00">$shr</text>
<polyline fill="none" stroke="black" points="643.73,-149 643.73,-195 "/>
<text text-anchor="middle" x="656.73" y="-168.3" font-family="Times,serif" font-size="14.00">Y</text>
</g>
<!-- n8&#45;&gt;c30 -->
<g id="edge27" class="edge">
<title>n8:e&#45;&gt;c30:w</title>
<path fill="none" stroke="black" stroke-width="3" d="M531.73,-215C548.72,-215 548.01,-194.93 558.08,-187.09"/>
<polygon fill="black" stroke="black" stroke-width="3" points="559.27,-190.38 567.73,-184 557.14,-183.71 559.27,-190.38"/>
</g>
<!-- c31 -->
<g id="node25" class="node">
<title>c31</title>
<polygon fill="none" stroke="black" points="705.73,-109 705.73,-155 807.73,-155 807.73,-109 705.73,-109"/>
<text text-anchor="middle" x="719.23" y="-139.8" font-family="Times,serif" font-size="14.00">A</text>
<polyline fill="none" stroke="black" points="705.73,-132 732.73,-132 "/>
<text text-anchor="middle" x="719.23" y="-116.8" font-family="Times,serif" font-size="14.00">B</text>
<polyline fill="none" stroke="black" points="732.73,-109 732.73,-155 "/>
<text text-anchor="middle" x="757.23" y="-135.8" font-family="Times,serif" font-size="14.00">$25</text>
<text text-anchor="middle" x="757.23" y="-120.8" font-family="Times,serif" font-size="14.00">$xor</text>
<polyline fill="none" stroke="black" points="781.73,-109 781.73,-155 "/>
<text text-anchor="middle" x="794.73" y="-128.3" font-family="Times,serif" font-size="14.00">Y</text>
</g>
<!-- n8&#45;&gt;c31 -->
<g id="edge28" class="edge">
<title>n8:e&#45;&gt;c31:w</title>
<path fill="none" stroke="black" stroke-width="3" d="M531.73,-215C569.11,-215 537.59,-161.1 567.73,-139 614.83,-104.47 640.78,-118.18 695.54,-119.84"/>
<polygon fill="black" stroke="black" stroke-width="3" points="695.68,-123.35 705.73,-120 695.78,-116.35 695.68,-123.35"/>
</g>
<!-- n9 -->
<g id="node6" class="node">
<title>n9</title>
<polygon fill="none" stroke="black" points="945.76,-140 843.7,-122 945.76,-104 1047.81,-122 945.76,-140"/>
<text text-anchor="middle" x="945.76" y="-118.3" font-family="Times,serif" font-size="14.00">next_wr_gptr</text>
</g>
<!-- c20 -->
<g id="node15" class="node">
<title>c20</title>
<polygon fill="none" stroke="black" points="1108.28,-36 1108.28,-82 1205.28,-82 1205.28,-36 1108.28,-36"/>
<text text-anchor="middle" x="1121.78" y="-66.8" font-family="Times,serif" font-size="14.00">A</text>
<polyline fill="none" stroke="black" points="1108.28,-59 1135.28,-59 "/>
<text text-anchor="middle" x="1121.78" y="-43.8" font-family="Times,serif" font-size="14.00">B</text>
<polyline fill="none" stroke="black" points="1135.28,-36 1135.28,-82 "/>
<text text-anchor="middle" x="1157.28" y="-62.8" font-family="Times,serif" font-size="14.00">$27</text>
<text text-anchor="middle" x="1157.28" y="-47.8" font-family="Times,serif" font-size="14.00">$eq</text>
<polyline fill="none" stroke="black" points="1179.28,-36 1179.28,-82 "/>
<text text-anchor="middle" x="1192.28" y="-55.3" font-family="Times,serif" font-size="14.00">Y</text>
</g>
<!-- n9&#45;&gt;c20 -->
<g id="edge30" class="edge">
<title>n9:e&#45;&gt;c20:w</title>
<path fill="none" stroke="black" stroke-width="3" d="M1047.78,-122C1078.65,-122 1073.84,-81.55 1096.91,-72.7"/>
<polygon fill="black" stroke="black" stroke-width="3" points="1097.52,-76.14 1106.78,-71 1096.33,-69.24 1097.52,-76.14"/>
</g>
<!-- c28 -->
<g id="node21" class="node">
<title>c28</title>
<polygon fill="none" stroke="black" points="1083.78,-139.5 1083.78,-208.5 1229.78,-208.5 1229.78,-139.5 1083.78,-139.5"/>
<text text-anchor="middle" x="1111.78" y="-193.3" font-family="Times,serif" font-size="14.00">ARST</text>
<polyline fill="none" stroke="black" points="1083.78,-185.5 1139.78,-185.5 "/>
<text text-anchor="middle" x="1111.78" y="-170.3" font-family="Times,serif" font-size="14.00">CLK</text>
<polyline fill="none" stroke="black" points="1083.78,-162.5 1139.78,-162.5 "/>
<text text-anchor="middle" x="1111.78" y="-147.3" font-family="Times,serif" font-size="14.00">D</text>
<polyline fill="none" stroke="black" points="1139.78,-139.5 1139.78,-208.5 "/>
<text text-anchor="middle" x="1170.78" y="-177.8" font-family="Times,serif" font-size="14.00">$4349</text>
<text text-anchor="middle" x="1170.78" y="-162.8" font-family="Times,serif" font-size="14.00">$adff</text>
<polyline fill="none" stroke="black" points="1201.78,-139.5 1201.78,-208.5 "/>
<text text-anchor="middle" x="1215.78" y="-170.3" font-family="Times,serif" font-size="14.00">Q</text>
</g>
<!-- n9&#45;&gt;c28 -->
<g id="edge31" class="edge">
<title>n9:e&#45;&gt;c28:w</title>
<path fill="none" stroke="black" stroke-width="3" d="M1047.78,-122C1064.16,-122 1064.25,-140.42 1074.01,-147.9"/>
<polygon fill="black" stroke="black" stroke-width="3" points="1073.19,-151.31 1083.78,-151 1075.31,-144.64 1073.19,-151.31"/>
</g>
<!-- n10 -->
<g id="node7" class="node">
<title>n10</title>
<polygon fill="none" stroke="black" points="506.57,-33.54 506.57,-48.46 461.54,-59 397.87,-59 352.84,-48.46 352.84,-33.54 397.87,-23 461.54,-23 506.57,-33.54"/>
<text text-anchor="middle" x="429.7" y="-37.3" font-family="Times,serif" font-size="14.00">sync_rd_gptr</text>
</g>
<!-- x1 -->
<g id="node16" class="node">
<title>x1</title>
<path fill="none" stroke="black" d="M920.26,-24C920.26,-24 971.26,-24 971.26,-24 977.26,-24 983.26,-30 983.26,-36 983.26,-36 983.26,-58 983.26,-58 983.26,-64 977.26,-70 971.26,-70 971.26,-70 920.26,-70 920.26,-70 914.26,-70 908.26,-64 908.26,-58 908.26,-58 908.26,-36 908.26,-36 908.26,-30 914.26,-24 920.26,-24"/>
<text text-anchor="middle" x="945.76" y="-54.8" font-family="Times,serif" font-size="14.00">1:0 &#45; 3:2</text>
<polyline fill="none" stroke="black" points="908.26,-47 983.26,-47 "/>
<text text-anchor="middle" x="945.76" y="-31.8" font-family="Times,serif" font-size="14.00">1:0 &#45; 1:0</text>
</g>
<!-- n10&#45;&gt;x1 -->
<g id="edge5" class="edge">
<title>n10:e&#45;&gt;x1:w</title>
<path fill="none" stroke="black" stroke-width="3" d="M507.7,-41C534.44,-41 541.01,-37.99 567.73,-37 589.38,-36.2 835.57,-35.15 896.67,-35.01"/>
<polygon fill="black" stroke="black" stroke-width="3" points="896.76,-38.51 906.76,-35 896.75,-31.51 896.76,-38.51"/>
</g>
<!-- x2 -->
<g id="node19" class="node">
<title>x2</title>
<path fill="none" stroke="black" d="M593.23,-47C593.23,-47 644.23,-47 644.23,-47 650.23,-47 656.23,-53 656.23,-59 656.23,-59 656.23,-71 656.23,-71 656.23,-77 650.23,-83 644.23,-83 644.23,-83 593.23,-83 593.23,-83 587.23,-83 581.23,-77 581.23,-71 581.23,-71 581.23,-59 581.23,-59 581.23,-53 587.23,-47 593.23,-47"/>
<text text-anchor="middle" x="618.73" y="-61.3" font-family="Times,serif" font-size="14.00">3:2 &#45; 1:0</text>
</g>
<!-- n10&#45;&gt;x2 -->
<g id="edge6" class="edge">
<title>n10:e&#45;&gt;x2:w</title>
<path fill="none" stroke="black" stroke-width="3" d="M507.7,-41C537.76,-41 544.64,-60.04 569.63,-64.2"/>
<polygon fill="black" stroke="black" stroke-width="3" points="569.49,-67.7 579.73,-65 570.04,-60.72 569.49,-67.7"/>
</g>
<!-- n11 -->
<g id="node8" class="node">
<title>n11</title>
<polygon fill="none" stroke="black" points="989.49,-168.54 989.49,-183.46 963.87,-194 927.64,-194 902.02,-183.46 902.02,-168.54 927.64,-158 963.87,-158 989.49,-168.54"/>
<text text-anchor="middle" x="945.76" y="-172.3" font-family="Times,serif" font-size="14.00">wr_clk</text>
</g>
<!-- n11&#45;&gt;c27 -->
<g id="edge7" class="edge">
<title>n11:e&#45;&gt;c27:w</title>
<path fill="none" stroke="black" d="M990.76,-176C1036.88,-176 1039.17,-141.71 1083.78,-130 1236.51,-89.93 1283.34,-118.7 1436.46,-119.96"/>
<polygon fill="black" stroke="black" points="1436.69,-123.46 1446.7,-120 1436.72,-116.46 1436.69,-123.46"/>
</g>
<!-- n11&#45;&gt;c28 -->
<g id="edge8" class="edge">
<title>n11:e&#45;&gt;c28:w</title>
<path fill="none" stroke="black" d="M990.76,-176C1028.56,-176 1040.43,-174.33 1073.77,-174.04"/>
<polygon fill="black" stroke="black" points="1073.8,-177.54 1083.78,-174 1073.77,-170.54 1073.8,-177.54"/>
</g>
<!-- n11&#45;&gt;c29 -->
<g id="edge9" class="edge">
<title>n11:e&#45;&gt;c29:w</title>
<path fill="none" stroke="black" d="M990.76,-176C1020.26,-176 1026.22,-189.86 1047.78,-210 1065.27,-226.34 1058.7,-252.56 1073.72,-259.98"/>
<polygon fill="black" stroke="black" points="1073.29,-263.47 1083.78,-262 1074.67,-256.6 1073.29,-263.47"/>
</g>
<!-- n12 -->
<g id="node9" class="node">
<title>n12</title>
<polygon fill="none" stroke="black" points="1812.99,-290.54 1812.99,-305.46 1788.68,-316 1754.29,-316 1729.97,-305.46 1729.97,-290.54 1754.29,-280 1788.68,-280 1812.99,-290.54"/>
<text text-anchor="middle" x="1771.48" y="-294.3" font-family="Times,serif" font-size="14.00">wr_en</text>
</g>
<!-- c19 -->
<g id="node14" class="node">
<title>c19</title>
<polygon fill="none" stroke="black" points="1857.98,-263 1857.98,-309 1962.98,-309 1962.98,-263 1857.98,-263"/>
<text text-anchor="middle" x="1871.48" y="-293.8" font-family="Times,serif" font-size="14.00">A</text>
<polyline fill="none" stroke="black" points="1857.98,-286 1884.98,-286 "/>
<text text-anchor="middle" x="1871.48" y="-270.8" font-family="Times,serif" font-size="14.00">B</text>
<polyline fill="none" stroke="black" points="1884.98,-263 1884.98,-309 "/>
<text text-anchor="middle" x="1910.98" y="-289.8" font-family="Times,serif" font-size="14.00">$22</text>
<text text-anchor="middle" x="1910.98" y="-274.8" font-family="Times,serif" font-size="14.00">$and</text>
<polyline fill="none" stroke="black" points="1936.98,-263 1936.98,-309 "/>
<text text-anchor="middle" x="1949.98" y="-282.3" font-family="Times,serif" font-size="14.00">Y</text>
</g>
<!-- n12&#45;&gt;c19 -->
<g id="edge10" class="edge">
<title>n12:e&#45;&gt;c19:w</title>
<path fill="none" stroke="black" d="M1814.48,-298C1829.89,-298 1836.09,-298 1847.75,-298"/>
<polygon fill="black" stroke="black" points="1847.98,-301.5 1857.98,-298 1847.98,-294.5 1847.98,-301.5"/>
</g>
<!-- n13 -->
<g id="node10" class="node">
<title>n13</title>
<polygon fill="none" stroke="black" points="1001.41,-300.54 1001.41,-315.46 968.81,-326 922.7,-326 890.1,-315.46 890.1,-300.54 922.7,-290 968.81,-290 1001.41,-300.54"/>
<text text-anchor="middle" x="945.76" y="-304.3" font-family="Times,serif" font-size="14.00">wr_reset</text>
</g>
<!-- n13&#45;&gt;c27 -->
<g id="edge11" class="edge">
<title>n13:e&#45;&gt;c27:w</title>
<path fill="none" stroke="black" d="M1002.76,-308C1103.66,-308 1132.46,-332.66 1229.78,-306 1319.45,-281.44 1344,-265.76 1410.7,-201 1429.41,-182.84 1420.14,-153.06 1436.42,-145.04"/>
<polygon fill="black" stroke="black" points="1437.58,-148.38 1446.7,-143 1436.21,-141.51 1437.58,-148.38"/>
</g>
<!-- n13&#45;&gt;c28 -->
<g id="edge12" class="edge">
<title>n13:e&#45;&gt;c28:w</title>
<path fill="none" stroke="black" d="M1002.76,-308C1060.14,-308 1027.31,-210.03 1073.77,-198.17"/>
<polygon fill="black" stroke="black" points="1074.26,-201.64 1083.78,-197 1073.44,-194.69 1074.26,-201.64"/>
</g>
<!-- n13&#45;&gt;c29 -->
<g id="edge13" class="edge">
<title>n13:e&#45;&gt;c29:w</title>
<path fill="none" stroke="black" d="M1002.76,-308C1036.54,-308 1044.85,-289.27 1073.65,-285.62"/>
<polygon fill="black" stroke="black" points="1074.01,-289.1 1083.78,-285 1073.59,-282.11 1074.01,-289.1"/>
</g>
<!-- n14 -->
<g id="node11" class="node">
<title>n14</title>
<polygon fill="none" stroke="black" points="2069.76,-329 1999.21,-311 2069.76,-293 2140.31,-311 2069.76,-329"/>
<text text-anchor="middle" x="2069.76" y="-307.3" font-family="Times,serif" font-size="14.00">wr_valid</text>
</g>
<!-- x0 -->
<g id="node13" class="node">
<title>x0</title>
<path fill="none" stroke="black" d="M2188.53,-320C2188.53,-320 2239.53,-320 2239.53,-320 2245.53,-320 2251.53,-326 2251.53,-332 2251.53,-332 2251.53,-354 2251.53,-354 2251.53,-360 2245.53,-366 2239.53,-366 2239.53,-366 2188.53,-366 2188.53,-366 2182.53,-366 2176.53,-360 2176.53,-354 2176.53,-354 2176.53,-332 2176.53,-332 2176.53,-326 2182.53,-320 2188.53,-320"/>
<text text-anchor="middle" x="2214.03" y="-350.8" font-family="Times,serif" font-size="14.00">0 &#45;&gt; 3:1</text>
<polyline fill="none" stroke="black" points="2176.53,-343 2251.53,-343 "/>
<text text-anchor="middle" x="2214.03" y="-327.8" font-family="Times,serif" font-size="14.00">0:0 &#45; 0:0</text>
</g>
<!-- n14&#45;&gt;x0 -->
<g id="edge15" class="edge">
<title>n14:e&#45;&gt;x0:w</title>
<path fill="none" stroke="black" d="M2140.53,-311C2154.69,-311 2157.53,-322.96 2166.56,-328.39"/>
<polygon fill="black" stroke="black" points="2165.97,-331.85 2176.53,-331 2167.75,-325.08 2165.97,-331.85"/>
</g>
<!-- c18&#45;&gt;n8 -->
<g id="edge25" class="edge">
<title>c18:e&#45;&gt;n8:w</title>
<path fill="none" stroke="black" stroke-width="3" d="M291.68,-314C334.47,-314 289.99,-231.28 317.79,-217.07"/>
<polygon fill="black" stroke="black" stroke-width="3" points="318.61,-220.47 327.68,-215 317.17,-213.62 318.61,-220.47"/>
</g>
<!-- x0&#45;&gt;c18 -->
<g id="edge1" class="edge">
<title>x0:e&#45;&gt;c18:w</title>
<path fill="none" stroke="black" stroke-width="3" d="M2259.05,-353.46C2258.12,-358.09 2255.45,-363.22 2252.03,-366.5 2227.81,-389.72 2210.09,-366.72 2176.53,-366.5 2058.72,-365.72 2029.29,-363 1911.48,-363 617.73,-363 617.73,-363 617.73,-363 469.28,-363 439.24,-306.71 291.68,-290.5 271.29,-288.26 219.04,-277.81 194.05,-293.55"/>
<polygon fill="none" stroke="black" stroke-width="3" points="2259.02,-353.4 2252.56,-350.2 2253.03,-343 2259.49,-346.2 2259.02,-353.4"/>
<polygon fill="none" stroke="black" stroke-width="3" points="193.87,-293.72 192.28,-300.76 185.18,-302 186.76,-294.97 193.87,-293.72"/>
</g>
<!-- c19&#45;&gt;n14 -->
<g id="edge14" class="edge">
<title>c19:e&#45;&gt;n14:w</title>
<path fill="none" stroke="black" d="M1962.98,-286C1978.35,-286 1979.75,-301.57 1989.23,-308.13"/>
<polygon fill="black" stroke="black" points="1988.4,-311.54 1998.98,-311 1990.38,-304.82 1988.4,-311.54"/>
</g>
<!-- c20&#45;&gt;n7 -->
<g id="edge23" class="edge">
<title>c20:e&#45;&gt;n7:w</title>
<path fill="none" stroke="black" d="M1206.78,-59C1229.35,-59 1237.31,-61.22 1255.77,-61.84"/>
<polygon fill="black" stroke="black" points="1255.73,-65.34 1265.78,-62 1255.84,-58.34 1255.73,-65.34"/>
</g>
<!-- x1&#45;&gt;c20 -->
<g id="edge2" class="edge">
<title>x1:e&#45;&gt;c20:w</title>
<path fill="none" stroke="black" stroke-width="3" d="M996.76,-47C1037.52,-47 1053.92,-47 1094.62,-47"/>
<polygon fill="none" stroke="black" stroke-width="3" points="996.76,-47 990.76,-51 984.76,-47 990.76,-43 996.76,-47"/>
<polygon fill="none" stroke="black" stroke-width="3" points="1094.78,-47 1100.78,-43 1106.78,-47 1100.78,-51 1094.78,-47"/>
</g>
<!-- c21&#45;&gt;c19 -->
<g id="edge4" class="edge">
<title>c21:e&#45;&gt;c19:w</title>
<path fill="none" stroke="black" d="M1821.98,-205C1852.25,-205 1830.63,-257.83 1847.92,-271.04"/>
<polygon fill="black" stroke="black" points="1847.4,-274.53 1857.98,-274 1849.38,-267.82 1847.4,-274.53"/>
</g>
<!-- c22 -->
<g id="node18" class="node">
<title>c22</title>
<polygon fill="none" stroke="black" points="706.23,-46 706.23,-84 807.23,-84 807.23,-46 706.23,-46"/>
<text text-anchor="middle" x="719.23" y="-61.3" font-family="Times,serif" font-size="14.00">A</text>
<polyline fill="none" stroke="black" points="732.23,-46 732.23,-84 "/>
<text text-anchor="middle" x="756.73" y="-68.8" font-family="Times,serif" font-size="14.00">$26</text>
<text text-anchor="middle" x="756.73" y="-53.8" font-family="Times,serif" font-size="14.00">$not</text>
<polyline fill="none" stroke="black" points="781.23,-46 781.23,-84 "/>
<text text-anchor="middle" x="794.23" y="-61.3" font-family="Times,serif" font-size="14.00">Y</text>
</g>
<!-- c22&#45;&gt;x1 -->
<g id="edge16" class="edge">
<title>c22:e&#45;&gt;x1:w</title>
<path fill="none" stroke="black" stroke-width="3" d="M807.73,-65C848.21,-65 860.66,-59.94 896.54,-59.11"/>
<polygon fill="black" stroke="black" stroke-width="3" points="896.8,-62.61 906.76,-59 896.72,-55.61 896.8,-62.61"/>
</g>
<!-- x2&#45;&gt;c22 -->
<g id="edge3" class="edge">
<title>x2:e&#45;&gt;c22:w</title>
<path fill="none" stroke="black" stroke-width="3" d="M669.77,-65C678.68,-65 684.75,-65 693.65,-65"/>
<polygon fill="none" stroke="black" stroke-width="3" points="669.73,-65 663.73,-69 657.73,-65 663.73,-61 669.73,-65"/>
<polygon fill="none" stroke="black" stroke-width="3" points="693.73,-65 699.73,-61 705.73,-65 699.73,-69 693.73,-65"/>
</g>
<!-- c27&#45;&gt;n6 -->
<g id="edge21" class="edge">
<title>c27:e&#45;&gt;n6:w</title>
<path fill="none" stroke="black" d="M1592.7,-120C1625.49,-120 1599.36,-178.97 1618.8,-192.33"/>
<polygon fill="black" stroke="black" points="1618.14,-195.78 1628.7,-195 1619.96,-189.02 1618.14,-195.78"/>
</g>
<!-- c28&#45;&gt;n5 -->
<g id="edge20" class="edge">
<title>c28:e&#45;&gt;n5:w</title>
<path fill="none" stroke="black" stroke-width="3" d="M1229.78,-174C1241.78,-174 1247.03,-174 1255.66,-174"/>
<polygon fill="black" stroke="black" stroke-width="3" points="1255.78,-177.5 1265.78,-174 1255.78,-170.5 1255.78,-177.5"/>
</g>
<!-- c29&#45;&gt;n4 -->
<g id="edge18" class="edge">
<title>c29:e&#45;&gt;n4:w</title>
<path fill="none" stroke="black" stroke-width="3" d="M1230.78,-262C1246.34,-262 1240.94,-286.15 1229.78,-297 1218.15,-308.31 1099.65,-300.37 1083.78,-297 1066.66,-293.37 1064.78,-285.19 1047.78,-281 922.35,-250.06 886.92,-262 757.73,-262 428.7,-262 428.7,-262 428.7,-262 320.81,-262 286.28,-239.52 186.68,-281 167.19,-289.12 170.47,-304.65 150.68,-312 90.07,-334.5 52.18,-356.43 5.22,-312 2.85,-309.76 0.92,-306.37 0,-303.14"/>
<polygon fill="black" stroke="black" stroke-width="3" points="3.2,-304.55 4.22,-294 -3.15,-301.61 3.2,-304.55"/>
</g>
<!-- v3 -->
<g id="node23" class="node">
<title>v3</title>
<ellipse fill="none" stroke="black" cx="429.7" cy="-160" rx="27" ry="18"/>
<text text-anchor="middle" x="429.7" y="-156.3" font-family="Times,serif" font-size="14.00">1</text>
</g>
<!-- v3&#45;&gt;c30 -->
<g id="edge32" class="edge">
<title>v3:e&#45;&gt;c30:w</title>
<path fill="none" stroke="black" stroke-width="3" d="M457.7,-160C503.07,-160 516.87,-160 557.68,-160"/>
<polygon fill="black" stroke="black" stroke-width="3" points="557.73,-163.5 567.73,-160 557.73,-156.5 557.73,-163.5"/>
</g>
<!-- c30&#45;&gt;c31 -->
<g id="edge17" class="edge">
<title>c30:e&#45;&gt;c31:w</title>
<path fill="none" stroke="black" stroke-width="3" d="M669.73,-172C685.88,-172 686.28,-154.22 696.03,-147"/>
<polygon fill="black" stroke="black" stroke-width="3" points="697.21,-150.3 705.73,-144 695.14,-143.61 697.21,-150.3"/>
</g>
<!-- c31&#45;&gt;n9 -->
<g id="edge29" class="edge">
<title>c31:e&#45;&gt;n9:w</title>
<path fill="none" stroke="black" stroke-width="3" d="M807.73,-132C820.31,-132 824.96,-126.26 833.7,-123.48"/>
<polygon fill="black" stroke="black" stroke-width="3" points="834.35,-126.92 843.73,-122 833.33,-119.99 834.35,-126.92"/>
</g>
</g>
</svg>
