<?xml version="1.0" encoding="UTF-8" standalone="no"?>
<!DOCTYPE svg PUBLIC "-//W3C//DTD SVG 1.1//EN"
 "http://www.w3.org/Graphics/SVG/1.1/DTD/svg11.dtd">
<!-- Generated by graphviz version 2.43.0 (0)
 -->
<!-- Title: synchronizer Pages: 1 -->
<svg width="652pt" height="187pt"
 viewBox="0.00 0.00 651.63 187.00" xmlns="http://www.w3.org/2000/svg" xmlns:xlink="http://www.w3.org/1999/xlink">
<g id="graph0" class="graph" transform="scale(1 1) rotate(0) translate(4 183)">
<title>synchronizer</title>
<polygon fill="white" stroke="transparent" points="-4,4 -4,-183 647.63,-183 647.63,4 -4,4"/>
<text text-anchor="middle" x="321.81" y="-7.8" font-family="Times,serif" font-size="14.00">synchronizer</text>
<!-- n1 -->
<g id="node1" class="node">
<title>n1</title>
<polygon fill="none" stroke="black" points="64.29,-95.54 64.29,-110.46 48.47,-121 26.1,-121 10.29,-110.46 10.29,-95.54 26.1,-85 48.47,-85 64.29,-95.54"/>
<text text-anchor="middle" x="37.29" y="-99.3" font-family="Times,serif" font-size="14.00">clk</text>
</g>
<!-- c10 -->
<g id="node6" class="node">
<title>c10</title>
<polygon fill="none" stroke="black" points="403.94,-92.5 403.94,-161.5 549.94,-161.5 549.94,-92.5 403.94,-92.5"/>
<text text-anchor="middle" x="431.94" y="-146.3" font-family="Times,serif" font-size="14.00">ARST</text>
<polyline fill="none" stroke="black" points="403.94,-138.5 459.94,-138.5 "/>
<text text-anchor="middle" x="431.94" y="-123.3" font-family="Times,serif" font-size="14.00">CLK</text>
<polyline fill="none" stroke="black" points="403.94,-115.5 459.94,-115.5 "/>
<text text-anchor="middle" x="431.94" y="-100.3" font-family="Times,serif" font-size="14.00">D</text>
<polyline fill="none" stroke="black" points="459.94,-92.5 459.94,-161.5 "/>
<text text-anchor="middle" x="490.94" y="-130.8" font-family="Times,serif" font-size="14.00">$4343</text>
<text text-anchor="middle" x="490.94" y="-115.8" font-family="Times,serif" font-size="14.00">$adff</text>
<polyline fill="none" stroke="black" points="521.94,-92.5 521.94,-161.5 "/>
<text text-anchor="middle" x="535.94" y="-123.3" font-family="Times,serif" font-size="14.00">Q</text>
</g>
<!-- n1&#45;&gt;c10 -->
<g id="edge1" class="edge">
<title>n1:e&#45;&gt;c10:w</title>
<path fill="none" stroke="black" d="M65.29,-103C85.53,-103 90.4,-106.23 110.57,-108 237.3,-119.09 271.5,-126.6 393.81,-126.98"/>
<polygon fill="black" stroke="black" points="393.94,-130.48 403.94,-127 393.95,-123.48 393.94,-130.48"/>
</g>
<!-- c11 -->
<g id="node7" class="node">
<title>c11</title>
<polygon fill="none" stroke="black" points="110.57,-29.5 110.57,-98.5 256.57,-98.5 256.57,-29.5 110.57,-29.5"/>
<text text-anchor="middle" x="138.57" y="-83.3" font-family="Times,serif" font-size="14.00">ARST</text>
<polyline fill="none" stroke="black" points="110.57,-75.5 166.57,-75.5 "/>
<text text-anchor="middle" x="138.57" y="-60.3" font-family="Times,serif" font-size="14.00">CLK</text>
<polyline fill="none" stroke="black" points="110.57,-52.5 166.57,-52.5 "/>
<text text-anchor="middle" x="138.57" y="-37.3" font-family="Times,serif" font-size="14.00">D</text>
<polyline fill="none" stroke="black" points="166.57,-29.5 166.57,-98.5 "/>
<text text-anchor="middle" x="197.57" y="-67.8" font-family="Times,serif" font-size="14.00">$4344</text>
<text text-anchor="middle" x="197.57" y="-52.8" font-family="Times,serif" font-size="14.00">$adff</text>
<polyline fill="none" stroke="black" points="228.57,-29.5 228.57,-98.5 "/>
<text text-anchor="middle" x="242.57" y="-60.3" font-family="Times,serif" font-size="14.00">Q</text>
</g>
<!-- n1&#45;&gt;c11 -->
<g id="edge2" class="edge">
<title>n1:e&#45;&gt;c11:w</title>
<path fill="none" stroke="black" d="M65.29,-103C87.9,-103 85.58,-74.72 100.79,-66.32"/>
<polygon fill="black" stroke="black" points="101.65,-69.72 110.57,-64 100.03,-62.91 101.65,-69.72"/>
</g>
<!-- n2 -->
<g id="node2" class="node">
<title>n2</title>
<polygon fill="none" stroke="black" points="69.51,-33.54 69.51,-48.46 50.63,-59 23.94,-59 5.06,-48.46 5.06,-33.54 23.94,-23 50.63,-23 69.51,-33.54"/>
<text text-anchor="middle" x="37.29" y="-37.3" font-family="Times,serif" font-size="14.00">d_in</text>
</g>
<!-- n2&#45;&gt;c11 -->
<g id="edge3" class="edge">
<title>n2:e&#45;&gt;c11:w</title>
<path fill="none" stroke="black" stroke-width="3" d="M70.29,-41C84.27,-41 90.06,-41 100.47,-41"/>
<polygon fill="black" stroke="black" stroke-width="3" points="100.57,-44.5 110.57,-41 100.57,-37.5 100.57,-44.5"/>
</g>
<!-- n3 -->
<g id="node3" class="node">
<title>n3</title>
<polygon fill="none" stroke="black" points="330.26,-91 292.38,-73 330.26,-55 368.13,-73 330.26,-91"/>
<text text-anchor="middle" x="330.26" y="-69.3" font-family="Times,serif" font-size="14.00">q_1</text>
</g>
<!-- n3&#45;&gt;c10 -->
<g id="edge5" class="edge">
<title>n3:e&#45;&gt;c10:w</title>
<path fill="none" stroke="black" stroke-width="3" d="M367.94,-73C384.93,-73 384.22,-93.07 394.29,-100.91"/>
<polygon fill="black" stroke="black" stroke-width="3" points="393.35,-104.29 403.94,-104 395.48,-97.62 393.35,-104.29"/>
</g>
<!-- n4 -->
<g id="node4" class="node">
<title>n4</title>
<polygon fill="none" stroke="black" points="643.47,-119.54 643.47,-134.46 626.67,-145 602.9,-145 586.1,-134.46 586.1,-119.54 602.9,-109 626.67,-109 643.47,-119.54"/>
<text text-anchor="middle" x="614.78" y="-123.3" font-family="Times,serif" font-size="14.00">q_2</text>
</g>
<!-- n5 -->
<g id="node5" class="node">
<title>n5</title>
<polygon fill="none" stroke="black" points="74.36,-153.54 74.36,-168.46 52.64,-179 21.93,-179 0.21,-168.46 0.21,-153.54 21.93,-143 52.64,-143 74.36,-153.54"/>
<text text-anchor="middle" x="37.29" y="-157.3" font-family="Times,serif" font-size="14.00">reset</text>
</g>
<!-- n5&#45;&gt;c10 -->
<g id="edge7" class="edge">
<title>n5:e&#45;&gt;c10:w</title>
<path fill="none" stroke="black" d="M74.57,-161C217.61,-161 255.7,-150.51 393.82,-150.02"/>
<polygon fill="black" stroke="black" points="393.95,-153.52 403.94,-150 393.93,-146.52 393.95,-153.52"/>
</g>
<!-- n5&#45;&gt;c11 -->
<g id="edge8" class="edge">
<title>n5:e&#45;&gt;c11:w</title>
<path fill="none" stroke="black" d="M74.57,-161C107,-161 81.47,-102.82 100.76,-89.63"/>
<polygon fill="black" stroke="black" points="101.82,-92.97 110.57,-87 100,-86.21 101.82,-92.97"/>
</g>
<!-- c10&#45;&gt;n4 -->
<g id="edge6" class="edge">
<title>c10:e&#45;&gt;n4:w</title>
<path fill="none" stroke="black" stroke-width="3" d="M549.94,-127C561.94,-127 567.19,-127 575.82,-127"/>
<polygon fill="black" stroke="black" stroke-width="3" points="575.94,-130.5 585.94,-127 575.94,-123.5 575.94,-130.5"/>
</g>
<!-- c11&#45;&gt;n3 -->
<g id="edge4" class="edge">
<title>c11:e&#45;&gt;n3:w</title>
<path fill="none" stroke="black" stroke-width="3" d="M256.57,-64C269.07,-64 273.83,-69.17 282.58,-71.67"/>
<polygon fill="black" stroke="black" stroke-width="3" points="282.2,-75.15 292.57,-73 283.12,-68.21 282.2,-75.15"/>
</g>
</g>
</svg>
